<svg width="32" height="32" viewBox="0 0 32 32" fill="none" xmlns="http://www.w3.org/2000/svg">
<path d="M24 29.3337L25.0702 18.6313C25.2206 17.1277 24.2292 15.7469 22.7564 15.4088L17.3333 14.1638V9.39018C17.3333 7.91205 16.131 6.71592 14.6529 6.72355C13.1855 6.73113 12 7.9228 12 9.39018V18.6671L11.3663 18.0334C10.3146 16.9817 8.56357 17.1551 7.73851 18.3926C7.11528 19.3275 7.23853 20.5723 8.033 21.3667L9.50293 22.8367C10.2644 23.5982 10.8046 24.5523 11.0658 25.597L12 29.3337H24Z" stroke="white" stroke-width="2" stroke-linecap="round" stroke-linejoin="round"/>
<path d="M22.6667 9.33325C22.6667 4.91497 19.0849 1.33325 14.6667 1.33325C10.2484 1.33325 6.66666 4.91497 6.66666 9.33325C6.66666 10.7904 7.05624 12.1566 7.73692 13.3333" stroke="white" stroke-width="2" stroke-linecap="round"/>
</svg>
