<svg width="485" height="441" viewBox="0 0 485 441" fill="none" xmlns="http://www.w3.org/2000/svg">
<path fill-rule="evenodd" clip-rule="evenodd" d="M241.552 421.775C243.38 421.8 244.709 421.599 246.127 421.334C248.455 420.9 250.668 420.128 252.952 419.61C256.429 418.825 259.621 417.284 262.919 416.053C263.995 415.649 265.184 415.265 266.226 414.606C267.232 413.972 268.29 413.363 269.447 412.979C269.574 412.937 269.993 412.771 269.636 412.273C269.132 412.397 268.638 412.369 267.988 412.691C265.529 413.913 262.869 414.685 260.313 415.686C257.578 416.761 254.778 417.621 251.963 418.384C250.462 418.79 248.938 419.268 247.465 419.699C245.64 420.232 243.607 420.417 241.552 421.775ZM341.128 278.455C341.162 279.223 340.396 279.49 340.71 280.397C341.022 281.294 341.639 281.848 342.055 282.594C342.639 283.632 343.652 284.036 344.696 284.085C345.585 284.125 345.273 284.853 345.686 285.237C347.484 285.307 349.272 285.215 350.784 283.29C347.449 281.764 345.042 278.99 341.128 278.455ZM102.217 342.332C100.132 338.059 92.8095 328.72 88.9612 327.447C89.6744 328.581 89.8131 329.86 91.2989 330.253C91.8437 330.397 92.1706 331.217 92.708 331.559C93.4756 332.049 92.7501 332.966 93.4509 333.516C94.1789 334.088 94.5826 335.193 95.3602 335.547C96.43 336.035 96.4003 337.162 97.1655 337.769C97.8886 338.341 98.7776 338.958 99.0773 339.751C99.4289 340.68 100.741 340.781 100.665 341.819C100.585 342.916 102.225 342.634 102.041 343.719C103.146 344.668 103.574 346.166 104.775 347.053C105.204 347.368 105.523 347.526 105.984 347.073C105.801 345.829 104.845 344.975 104.245 344.076C104.34 343.419 105.199 343.184 104.721 342.498C104.674 342.453 104.607 342.342 104.54 342.339C103.797 342.327 103.057 342.332 102.217 342.332ZM91.1677 365.805C90.1994 363.122 87.8097 361.636 86.3858 359.384C84.9098 357.053 83.1714 354.925 81.433 352.805C79.6401 350.618 77.7332 348.525 75.8858 346.407C75.663 346.85 75.5466 347.435 75.9626 347.841C77.5128 349.342 77.4361 351.931 79.4915 353.077C79.5162 354.633 80.8213 355.334 81.6311 356.382C82.2081 357.123 82.587 358.034 82.5325 358.75C83.6642 359.419 84.3403 360.058 84.8331 361.128C85.2392 362.01 86.3486 362.505 86.5913 363.585C88.1118 362.864 88.253 362.981 88.8621 365.218C89.2113 365.156 89.2782 364.611 89.9939 364.779C90.2737 365.022 90.7219 365.413 91.1677 365.805ZM172.69 294.202C176.962 297.521 181.581 300.125 186.269 302.592C191.912 305.564 197.64 308.378 203.309 311.306C203.945 311.633 204.416 311.658 205.057 311.214C194.797 305.094 184.208 299.775 173.743 294.222C173.468 294.075 173.045 294.202 172.69 294.202ZM318.643 90.2932C317.693 89.3439 316.879 88.394 315.925 87.6132C314.989 86.8458 314.389 85.8032 313.479 84.9887C312.259 83.899 310.816 83.116 309.686 81.9198C307.447 79.5465 304.844 77.596 302.296 75.5668C298.303 72.387 293.857 69.9473 289.515 67.3339C288.515 66.7317 287.417 66.2893 286.364 65.7733C296.77 74.2225 308.052 81.4437 317.932 90.4789C318 90.5404 318.253 90.3999 318.643 90.2932ZM29.5922 216.938C28.7551 217.141 28.2574 217.26 27.7621 217.38C27.6903 215.889 25.7884 216.807 25.3947 215.381C25.2981 213.867 25.5705 212.06 24.8672 210.311C24.5453 209.504 24.2654 209.578 23.7157 209.955C23.7429 211.294 23.4581 212.671 24.3001 213.737C24.05 214.388 23.3319 213.952 23.1536 214.542C23.1536 216.276 22.7326 218.183 23.265 219.772C23.8544 221.529 23.5894 223.188 23.6909 224.882C23.7949 226.643 23.7132 228.415 23.7132 230.183C23.7132 230.648 23.6934 231.114 23.7231 231.577C23.733 231.735 23.8692 231.886 23.9485 232.039C24.3893 232.049 24.8449 232.212 25.2634 231.932C24.622 230.284 24.6988 230.328 25.6894 229.209C26.2143 228.619 26.5487 229.248 26.8954 229.142C27.9132 228.833 27.3981 227.693 27.9008 227.149C28.2425 226.64 28.9904 227.537 29.2504 226.62C28.3713 226.231 27.091 226.973 26.5982 225.597C27.299 224.114 27.299 224.114 25.7661 223.129C25.0628 223.081 25.7166 224.19 24.8771 224.17C24.9737 223.478 24.3175 222.682 25.6498 222.484C26.046 222.425 26.2911 221.349 26.4719 221.001C26.519 220.354 25.8379 220.347 26.1178 219.904C26.5784 219.176 27.3882 219.115 27.9701 218.742C28.4481 219.064 28.6462 219.627 29.1415 219.714C29.711 218.802 28.4431 218.561 28.7626 217.824C28.926 217.649 29.1142 217.449 29.5922 216.938ZM100.419 234.696C102.403 234.781 103.941 236.113 105.793 236.565C108.067 237.12 110.288 237.866 112.551 238.471C114.483 238.986 116.372 239.594 118.356 239.962C120.389 240.34 122.326 241.162 124.356 241.656C126.456 242.168 128.601 242.595 130.641 243.313C131.785 243.717 132.892 244.168 134.096 244.416C135.45 244.695 136.845 244.981 138.083 245.559C139.341 246.147 141.003 245.619 141.956 247.053C142.184 247.4 142.805 247.24 143.236 247.107C143.452 247.039 143.781 246.731 143.811 246.763C144.92 247.943 146.557 247.507 147.976 248.214C147.872 247.678 147.976 247.373 147.315 247.159C144.286 246.174 141.32 244.997 138.284 244.04C137.216 243.703 136.176 243.055 134.968 243.275C132.759 241.947 130.173 241.694 127.769 241.164C125.295 240.618 122.848 239.893 120.424 239.251C115.07 237.833 109.629 236.688 104.382 234.88C103.037 235.202 101.878 233.729 100.419 234.696ZM130.914 54.2439C131.575 53.9075 132.315 53.7136 132.751 53.2405C132.991 52.9799 132.912 52.5645 133.509 52.4012C135.921 51.7396 138.345 51.0643 140.668 50.1471C141.854 49.6781 143.189 49.5305 144.224 48.6051C146.993 46.1262 149.823 43.716 152.637 41.2885C152.902 41.0608 153.038 40.6719 153.501 40.6739C154.147 40.6759 154.383 40.0593 154.754 39.689C155.081 39.3647 155.633 39.1401 155.673 38.2884C151.753 39.9731 148.258 42.0108 144.799 44.1007C141.515 46.0861 138.259 48.1176 135.049 50.2169C133.588 51.1721 132.045 51.9519 130.522 52.7829C130.327 52.8907 130.208 53.1389 130.116 53.2467C130.394 53.5934 130.624 53.8828 130.914 54.2439ZM287.373 208.717C287.565 209.898 288.703 209.597 289.266 210.267C289.823 210.93 290.544 211.475 291.299 212.001C294.151 213.989 296.831 216.227 299.556 218.396C301.521 219.96 303.468 221.596 305.493 223.02C307.523 224.447 309.345 226.148 311.444 227.458C313.437 228.704 314.876 230.759 317.29 231.382C318.226 230.06 318.23 229.048 316.953 227.997C315.106 226.477 313.144 225.096 311.204 223.695C309.85 222.718 308.367 221.908 307.088 220.847C304.568 218.754 301.749 217.094 299.013 215.35C295.703 213.242 292.382 211.145 289.099 208.995C288.48 208.591 287.999 208.493 287.373 208.717ZM80.2517 323.553C81.3389 324.618 81.7921 326.045 82.4854 327.345C83.3051 328.881 84.37 330.283 85.2342 331.799C85.5611 332.374 86.6755 332.193 86.4675 333.189C89.1568 334.678 90.8779 337.088 92.6287 339.543C92.3984 339.879 92.2127 340.154 92.0369 340.412C92.2944 340.682 92.5495 340.952 92.7971 341.212C93.0027 341.024 93.1958 340.851 93.384 340.68C94.0403 341.051 93.2033 341.963 94.018 342.29C94.1468 341.953 94.2681 341.631 94.3919 341.309C96.0932 341.4 96.1031 341.398 96.4399 342.963C96.5068 343.271 96.6256 343.459 96.9575 343.451C97.4181 343.526 97.5617 343.1 97.8415 342.902C98.478 343.204 98.6959 344.467 99.6716 343.895C99.097 342.111 97.6013 341.14 96.5687 339.818C95.3676 338.279 94.2805 336.652 92.9705 335.178C91.705 333.756 90.4495 332.309 89.2559 330.841C87.9112 329.181 86.7968 327.328 85.254 325.819C84.7216 325.297 83.9564 324.851 83.731 324.217C83.4314 323.372 82.8321 322.884 82.2873 322.302C81.7029 321.68 81.0863 321.091 80.5167 320.521C79.5336 321.628 81.636 322.626 80.2517 323.553ZM10.5289 300.367C10.155 300.912 10.2194 301.413 10.4571 301.933C11.4576 304.132 12.1732 306.456 12.9879 308.715C14.4614 312.782 16.1924 316.721 17.9952 320.635C21.0709 327.318 24.4313 333.863 28.1979 340.187C29.8076 342.889 31.4569 345.572 33.2226 348.175C35.112 350.96 37.217 353.598 39.1188 356.374C40.9439 359.037 43.1232 361.413 45.0672 363.979C46.6991 366.134 48.7916 367.905 50.228 370.229C50.5127 370.692 50.9932 371.041 51.4018 371.423C51.8054 371.799 52.1348 372.302 52.6127 372.5C52.9718 371.866 52.7217 371.601 52.4344 371.341C51.1491 370.174 50.1115 368.738 49.1457 367.365C46.8303 364.071 44.1435 361.083 41.7414 357.868C40.4586 356.152 38.9752 354.519 37.8782 352.736C35.4018 348.715 32.653 344.878 30.1964 340.841C26.8929 335.416 24.0203 329.77 20.8852 324.264C20.1398 322.956 19.907 321.472 19.1814 320.211C17.5817 317.432 16.1355 314.571 15.1003 311.549C14.3128 309.26 13.0697 307.182 12.4109 304.811C12.0048 303.347 11.4699 301.737 10.5289 300.367ZM301.212 25.299C301.555 25.6263 301.812 25.8735 302.073 26.1229C302.53 25.5186 303.273 25.4755 303.822 25.1102C304.892 25.4601 303.622 26.9755 304.872 27.2116C305.345 26.9961 304.89 26.2562 305.519 26.1373C306.481 25.9681 307.128 26.7006 307.92 26.9797C308.039 27.4291 307.708 27.9327 308.149 28.3196C308.728 27.8722 309.33 27.4833 310.055 27.981C311.494 28.9711 313.385 29.247 314.493 30.7514C314.896 31.2971 315.744 31.0714 316.05 31.7291C317.373 31.3464 318.242 32.3067 319.21 32.8648C322.376 34.688 325.573 36.4693 328.623 38.472C332.673 41.1314 336.741 43.8002 340.524 46.8146C343.133 48.8934 345.965 50.7505 348.217 53.2724C348.57 53.6685 348.952 53.7136 349.231 53.3524C340.432 43.1753 329.309 36.2394 317.417 30.3491C317.784 30.0013 318.194 29.7241 317.946 29.1527C317.027 28.7095 316.021 28.3647 315.18 27.785C314.14 27.0679 313.234 27.0669 312.446 27.8703C311.383 27.308 310.481 26.8309 309.646 26.3897C309.601 25.9352 309.692 25.3513 309.51 25.2487C308.221 24.5234 307.065 23.3219 305.34 23.9775C305.426 22.7258 304.234 22.8869 303.804 22.2846C302.86 22.7432 302.24 21.0195 301.108 21.9778C300.301 22.6611 299.494 22.2692 299.121 21.2329C299.257 21.0985 299.388 20.9661 299.576 20.7794C298.731 20.8769 298.396 19.6241 297.518 20.0366C297.039 20.4962 298.291 20.6655 297.465 21.1631C296.031 20.5701 294.424 20.1033 293.042 19.264C292.12 18.7048 291.449 18.8259 290.419 19.0598C291.544 19.7103 292.744 19.8509 293.137 21.0647C293.526 20.6768 293.833 20.2284 294.503 20.7774C295.113 21.276 295.045 21.8721 295.097 22.5072C295.114 22.736 295.342 22.773 295.473 22.6437C295.588 22.3205 295.703 21.9963 295.872 21.5192C297.892 22.5883 300.002 23.3209 301.8 24.7111C301.597 24.9143 301.465 25.0456 301.212 25.299ZM312.921 50.1225C314.088 52.2392 316.039 53.177 317.493 54.6001C318.742 55.8211 320.252 56.8716 321.666 57.9591C323.194 59.135 324.456 60.5838 325.961 61.7339C328.185 63.432 330.413 65.1085 332.386 67.1011C332.908 67.6294 333.354 68.3589 333.99 68.6247C335.701 69.3389 336.58 70.9168 337.863 72.0607C339.149 73.2079 340.736 73.9805 341.827 75.3778C342.115 75.7474 342.071 76.1997 342.643 76.5742C344.996 78.1204 346.58 80.6117 349.039 82.0828C349.197 83.2178 350.404 83.2966 350.995 84.0117C351.595 84.7373 352.318 85.362 353.048 86.0925C353.632 84.7455 352.449 84.4787 352.079 83.8527C350.455 81.1011 348.562 78.5051 346.417 76.1403C342.22 71.5128 337.538 67.3852 332.641 63.5254C331.426 62.567 330.373 61.4302 329.137 60.5417C324.921 57.5097 320.645 54.5558 316.337 51.6554C315.386 51.016 314.336 50.3861 312.921 50.1225ZM413.493 150.547C414.3 149.472 413.842 148.801 413.337 148.118H411.426C411.341 146.429 409.225 146.809 408.548 145.253C407.991 143.975 406.628 143.05 405.634 141.981C405.01 142.25 405.486 143.133 404.692 143.333C405.522 144.271 406.769 144.928 406.475 146.432H407.798C408.086 147.534 408.978 148.184 409.731 148.939C410.444 149.654 410.507 151.019 411.868 151.087C411.741 152.425 413.291 152.363 413.739 153.338C414.139 154.212 415.075 154.846 415.794 155.566C416.555 156.33 417.54 156.905 418.244 157.629C418.954 158.358 419.879 158.863 420.46 159.696C421.067 160.569 421.441 161.702 422.501 162.096C423.637 162.52 424.151 163.374 424.609 164.411C426.4 163.98 426.491 165.421 426.737 166.69C427.026 166.4 427.159 166.268 427.296 166.13C427.969 166.165 427.441 166.907 427.881 167.113C429.082 167.677 430.436 168.188 431.128 169.313C431.905 170.577 433.167 171.204 434.143 172.184C437.978 176.037 441.732 179.963 445.353 184.018C445.599 184.294 446.033 184.516 446.098 184.824C446.482 186.659 448.044 187.584 449.082 188.918C450.205 190.358 451.662 191.572 452.59 193.067C453.986 195.319 455.394 197.518 457.261 199.286C457.126 199.655 456.71 199.685 456.809 199.884C457.8 200.956 459.184 201.791 459.428 202.881C459.756 204.349 460.853 204.786 461.684 206.101C461.407 203.444 461.407 203.444 460.025 202.027C460.688 201.146 459.36 200.232 460.066 199.202C459.052 198.962 457.68 199.13 457.878 197.449C457.917 197.119 457.75 196.872 457.518 196.766C455.793 195.984 455.286 194.164 454.247 192.824C453.427 191.766 452.392 190.628 452.778 189.174C451.381 188.584 450.524 187.742 449.94 186.611C450.22 186.311 450.407 186.11 450.627 185.873C449.913 185.55 449.207 185.228 448.481 184.9C448.45 183.931 447.967 183.106 447.498 182.265H446.389C446.257 181.37 445.588 180.855 444.991 180.322C444.441 179.833 444.464 178.952 443.474 178.683C442.771 178.494 442.266 177.574 441.674 176.981C441.537 176.352 441.84 175.631 441.354 174.897C441.151 175.412 441.026 175.733 440.751 176.438C440.7 174.942 439.515 174.941 438.919 174.263C437.935 173.144 436.827 172.136 435.773 171.081C434.642 171.545 435.279 169.873 434.323 169.925C433.213 169.987 434.368 168.56 433.493 168.353C433.293 168.512 433.109 168.658 433.286 168.517C431.957 167.19 430.723 165.958 429.488 164.727C429.101 164.438 430.186 164.364 429.662 163.921C428.868 163.135 428.565 165.194 427.751 164.181C427.638 163.807 428.356 163.797 428.044 163.322C427.603 163.048 426.938 163.528 426.529 162.949C426.893 162.662 427.264 162.368 427.168 162.109C426.904 161.497 426.602 161.566 426.334 161.57C425.145 161.59 424.103 161.357 423.646 160.069C422.5 160.051 422.586 158.818 421.916 158.301C421.184 157.734 420.681 156.834 419.904 156.375C417.394 154.889 415.794 152.466 413.493 150.547ZM252.839 3.7311C253.342 2.92773 254.227 3.02316 254.84 3.22528C258.727 4.50473 262.773 5.15008 266.698 6.30025C268.762 6.90459 270.947 7.41041 273.137 7.67717C274.871 7.88854 276.434 8.75347 278.185 9.01406C280.068 9.29417 281.84 10.0965 283.718 10.51C285.302 10.8589 286.721 11.772 288.338 12.1814C290.68 12.7734 292.973 13.5737 295.246 14.4017C296.7 14.9311 298.267 15.2646 299.485 16.308C299.805 16.583 300.152 16.5225 300.473 16.6394C301.849 17.1391 303.233 17.5977 304.556 18.2688C307.323 19.6713 310.227 20.8061 312.971 22.2487C314.963 23.2973 317.006 24.2207 319.023 25.2067C320.963 26.1569 322.887 27.146 324.787 28.173C329.243 30.58 333.584 33.1871 337.727 36.0979C340.968 38.3746 344.01 40.9028 346.986 43.5387C349.396 45.6756 351.879 47.7472 353.97 50.1706C355.648 52.1151 357.618 53.8263 359.09 55.8845C360.477 57.8258 361.981 59.7045 363.409 61.5975C366.714 65.9827 369.829 70.488 372.77 75.1061C374.501 77.8249 376.186 80.5993 377.955 83.2812C380.029 86.4271 381.731 89.7854 383.795 92.9362C385.002 94.7809 386.008 96.8535 387.113 98.805C388.184 100.695 388.984 102.721 390.173 104.543C391.36 106.364 392.266 108.367 393.25 110.275C394.174 112.069 395.575 113.774 395.771 115.933C397.294 116.858 397.291 118.677 398.05 120.036C398.801 121.382 399.488 122.824 400.312 124.11C401.163 125.435 401.994 126.81 402.799 128.145C404.433 130.857 406.315 133.395 407.946 136.086C408.942 137.73 410.358 138.95 411.466 140.461C413.575 143.338 416.034 145.986 418.694 148.41C419.76 149.38 420.757 150.444 421.481 151.686C422.034 152.631 423.145 152.661 423.807 153.455C424.875 154.739 426.16 155.844 427.328 157.049C427.717 157.449 428.1 157.801 428.696 157.695C428.759 158.273 428.807 158.713 428.851 159.12C429.273 159.549 429.221 158.85 429.568 158.894C430.094 159.342 430.778 159.692 431.026 160.503C431.259 161.264 432.177 161.129 432.642 161.731C433.658 163.04 435.713 163.354 436.134 165.285C437.684 165.822 438.686 167.132 439.973 168.042C440.618 168.498 441.191 169.107 441.379 169.963C441.54 170.7 442.918 170.21 442.767 171.297C445.31 172.426 446.485 174.957 448.139 176.898C450.789 180.011 453.691 182.941 455.832 186.527C456.903 188.321 458.535 189.874 459.661 191.68C462.191 195.741 465.003 199.636 467.042 204.001C467.885 205.805 469.131 207.422 469.957 209.232C471.711 213.072 473.471 216.914 474.927 220.883C475.198 221.625 475.61 222.315 475.458 223.191C475.296 224.132 476.377 224.46 476.657 225.305C476.99 226.304 476.806 227.366 477.348 228.383C477.648 228.943 477.708 229.939 478.054 230.591C479.178 232.706 478.951 235.207 480.124 237.295C480.567 238.085 480.398 239.083 480.451 239.926C480.633 242.788 482.114 245.411 481.907 248.294C481.793 249.872 482.146 251.326 482.756 252.71C482.952 253.154 483.179 253.61 483.024 253.976C482.479 255.252 483.039 256.488 483.109 257.719C483.183 259.034 483.714 260.31 483.629 261.687C483.544 263.082 483.277 264.593 483.683 265.861C484.41 268.133 484.112 270.389 484.131 272.646C484.141 273.776 484.633 275.004 483.637 276.079C483.114 276.644 484.845 277.12 483.922 277.964C483.374 278.467 483.535 279.034 483.871 279.683C484.179 280.276 483.182 280.964 483.644 281.534C484.099 282.096 484.463 283.01 484.125 283.213C483.278 283.726 484.44 284.509 483.711 284.878C483.652 284.908 483.606 285.037 483.616 285.111C483.911 287.59 482.814 289.936 482.988 292.438C483.089 293.9 482.738 295.463 482.274 296.875C481.829 298.227 481.655 299.632 481.446 300.984C481.084 303.342 480.026 305.49 479.691 307.831C479.6 308.465 478.046 308.618 479.091 309.637C478.284 310.149 478.762 310.999 478.539 311.648C478.375 312.133 477.889 312.508 477.449 313.05C477.573 314.363 476.969 315.584 476.433 316.929C475.409 319.505 474.273 322.027 472.942 324.432C471.112 327.742 469.415 331.182 466.609 333.83C466.031 334.375 466.504 335.047 466.05 335.577C463.41 338.668 461.096 342.017 457.886 344.636C456.543 345.733 455.55 347.363 454.181 348.497C451.433 350.779 449.014 353.412 445.895 355.319C444.045 356.451 442.315 357.913 440.454 359.119C436.59 361.618 432.636 363.969 428.269 365.488C425.003 366.622 421.76 367.829 418.399 368.703C417.243 369.003 416.036 368.891 415.005 369.273C413.936 369.667 412.92 369.786 411.853 369.736C411.009 369.696 410.496 370.536 409.557 370.365C408.825 370.234 407.983 370.075 407.217 370.794C406.867 371.121 405.971 370.87 405.322 370.873C404.39 370.878 403.426 371.017 402.534 370.831C401.801 370.675 401.185 371.859 400.487 370.915C399.77 371.797 398.779 371.351 397.904 371.42C397.07 371.485 396.227 371.435 395.388 371.435H392.59C391.752 371.435 390.836 371.217 390.089 371.48C388.649 371.99 387.178 371.604 385.716 371.916C384.111 372.258 382.374 372.05 380.699 371.978C379.237 371.913 377.962 372.79 376.449 372.595C374.981 372.406 373.364 372.216 372.006 372.644C370.472 373.125 368.831 372.649 367.511 373.241C365.937 373.949 364.39 373.268 362.94 373.702C359.777 374.653 356.42 374.569 353.299 375.436C349.36 376.528 345.309 377.128 341.405 378.418C338.864 379.258 336.34 380.182 333.798 381.019C331.28 381.851 328.915 383.197 326.557 384.452C323.607 386.025 320.86 387.92 318.192 389.949C315.515 391.988 313.179 394.408 310.545 396.479C309.345 397.422 308.345 398.569 307.106 399.483C305.769 400.469 304.819 401.975 303.487 402.966C300.153 405.448 297.549 408.797 293.921 410.913C290.319 414.72 285.626 417.11 281.588 420.358C279.576 421.975 277.116 423.031 274.879 424.371C271.162 426.6 267.25 428.438 263.352 430.313C259.769 432.04 256.058 433.427 252.287 434.666C249.576 435.557 246.82 436.315 244.126 437.257C243.034 437.638 241.752 437.101 240.813 438.032C238.194 437.931 235.796 439.342 233.164 439.152C231.641 440.011 229.967 439.768 228.362 439.669C227.139 439.595 226.223 440.551 224.947 440.316C223.776 440.1 222.394 439.927 221.349 440.346C219.447 441.104 217.56 440.777 215.676 440.806C211.295 440.881 206.912 440.883 202.531 440.799C201.092 440.774 199.599 441.255 198.197 440.484C196.964 439.808 195.486 440.752 194.235 439.905C193.779 439.598 193.487 440.465 192.868 440.296C191.66 439.967 190.367 440.665 189.121 439.855C188.158 439.226 186.798 440.18 185.734 439.246C185.092 438.684 184.178 440.574 183.45 439.157C181.89 439.392 180.427 438.847 178.929 438.589C177.688 438.376 176.415 438.951 175.167 438.2C174.105 437.561 172.606 438.557 171.559 437.472C169.709 437.878 168.035 436.813 166.195 436.858C164.811 436.89 163.392 436.514 162.025 436.167C159.91 435.632 157.778 435.156 155.643 434.735C154.856 434.579 154.118 434.351 153.367 434.116C152.951 433.984 152.756 433.529 152.201 433.534C148.709 433.563 145.477 432.273 142.248 431.23C140.302 430.603 138.254 430.15 136.389 429.159C135.881 428.892 134.945 428.914 134.453 428.488C132.996 427.239 131.151 426.935 129.455 426.348C128.519 426.026 127.675 425.664 126.89 425.104C126.739 425 126.625 424.733 126.491 424.73C123.995 424.693 122.135 423.063 120.015 422.114C117.967 421.198 116.085 419.897 114.017 419.035C109.847 417.299 106.128 414.718 102.044 412.823C100.712 412.206 99.5082 411.309 98.5646 410.732C97.636 410.422 97.5617 411.267 96.8361 411.138C96.1997 411.004 95.9372 410.36 95.7218 409.496C93.6812 409.877 92.344 408.327 90.816 407.418C87.203 405.262 83.6766 402.946 80.2542 400.502C78.0032 398.891 75.7199 397.341 73.6447 395.443C67.0699 389.431 60.7402 383.174 54.5839 376.751C52.2388 374.301 49.8664 371.849 47.6525 369.278C45.7704 367.095 43.8586 364.903 42.1276 362.612C38.0812 357.256 34.0373 351.893 30.3945 346.233C27.6111 341.908 25.1025 337.435 22.5766 332.961C20.9595 330.095 19.4761 327.169 18.1042 324.18C15.9126 319.399 13.825 314.581 11.8488 309.701C9.994 305.111 9.15946 300.214 7.06196 295.735C7.05453 292.691 5.16254 290.038 5.24922 286.974C4.36019 285.676 4.51128 284.083 4.23887 282.658C3.95904 281.197 3.28296 279.75 3.52565 278.148C3.63709 277.417 2.8397 276.756 2.98333 275.864C3.1022 275.121 3.13935 274.303 2.5896 273.639C3.46871 272.958 2.13639 272.532 2.39394 271.787C2.65643 271.038 2.69357 270.033 2.40384 269.307C1.69311 267.531 2.35926 265.586 1.78474 263.961C1.16069 262.2 1.76991 260.464 1.27711 258.859C0.670394 256.887 1.75009 255.049 1.3613 253.141C1.32663 252.975 1.68076 252.73 1.85906 252.517C1.69315 252.111 1.2449 252.312 0.83134 252.059C1.18051 251.432 1.69808 250.83 1.85162 250.149C2.02992 249.349 1.89371 248.479 1.89371 247.503C1.3291 247.04 0.690174 246.516 0.130509 246.056C0.39796 244.937 0.0141242 244.068 0.499497 243.128C0.712467 242.717 0.306347 241.706 0.175098 240.97C0.00422676 240.008 1.09138 239.16 0.625818 238.477C0.00424372 237.566 0.237013 236.701 0.234536 235.832C0.199867 227.717 0.202326 219.602 0.232042 211.488C0.234519 210.619 -0.171579 209.62 0.727351 208.902C-0.642094 208.013 1.00222 207.212 0.82144 206.298C0.653045 205.458 0.999744 204.584 1.22757 203.713C1.61389 202.229 1.29692 200.568 1.34645 198.984C1.37864 197.924 1.18546 196.892 1.82933 195.819C2.34194 194.963 1.96307 193.767 2.2429 192.667C2.58217 191.341 3.04277 189.932 3.02048 188.487C3.00562 187.508 2.97837 186.571 3.51575 185.61C3.91692 184.896 3.19134 183.765 4.1299 183.075C4.01846 181.17 4.82577 179.457 5.21952 177.655C6.16797 173.321 7.44331 169.09 8.90191 164.906C10.1228 161.4 11.2867 157.873 12.5397 154.38C12.9483 153.247 13.404 152.117 13.8869 151.023C15.6352 147.081 17.2944 143.064 19.4612 139.353C21.3928 136.047 23.1758 132.646 25.256 129.415C26.363 127.698 27.1381 125.725 28.1831 123.926C30.6421 119.69 33.2151 115.528 36.0011 111.497C38.4453 107.962 40.7954 104.36 43.8983 101.329C44.7155 100.533 45.2999 99.5038 46.0676 98.6531C46.9418 97.6856 48.0735 96.909 48.7842 95.8448C49.7079 94.4599 50.9907 93.4195 51.9441 92.1143C52.6845 91.1007 54.2694 91.2156 54.6012 89.6241C54.8414 88.4678 56.7334 88.4329 57.0653 87.0714C58.7913 86.6117 59.1578 84.6736 60.7031 83.8425C62.1988 83.0382 63.2612 81.4336 64.5143 80.1797C65.7673 78.9248 66.9039 77.5131 68.3056 76.4469C70.8835 74.4853 72.9092 71.9294 75.4129 69.943C77.8001 68.0471 79.7812 65.6205 82.5399 64.2333C83.1937 63.9049 82.9238 63.3252 83.3398 62.9539C83.7707 62.567 84.3551 62.6225 84.729 62.2058C86.252 60.512 88.0474 59.1176 89.8081 57.6965C92.3118 55.6774 94.8822 53.7218 97.3611 51.6881C101.217 48.526 105.335 45.7814 109.481 43.0541C112.18 41.2773 114.944 39.5966 117.687 37.8881C120.874 35.904 124.044 33.8928 127.271 31.9783C129.733 30.5205 132.291 29.2277 134.767 27.7984C136.731 26.6647 138.65 25.455 140.569 24.2432C143.219 22.5667 145.933 20.9826 148.585 19.3296C152.362 16.9749 156.267 14.9178 160.257 13.0104C162.267 12.049 164.281 11.0671 166.438 10.3551C167.79 9.90772 169.216 9.34136 170.489 8.69704C173.092 7.37962 175.885 6.83481 178.594 5.94934C179.548 5.63745 180.513 5.59128 181.432 5.35427C182.291 5.13163 183.146 4.99824 184.008 4.82279C186.586 4.29747 189.263 4.25129 191.751 3.28069C191.912 3.2181 192.103 3.17501 192.271 3.19347C195.213 3.52796 198.039 2.3624 200.996 2.59223C203.626 2.79743 206.206 1.68625 208.873 2.06793C210.384 1.11271 212.11 1.82374 213.667 1.47182C217.865 0.524802 222.099 1.07064 226.312 0.970094C230.507 0.871597 234.702 0.96086 238.899 0.944444C241.874 0.932132 244.749 1.68318 247.654 2.14899C248.281 2.24851 248.951 2.67944 249.672 2.61993C250.904 2.5163 251.93 2.9421 252.839 3.7311Z" fill="#252525"/>
</svg>
