<svg width="143" height="86" viewBox="0 0 143 86" fill="none" xmlns="http://www.w3.org/2000/svg">
<g clip-path="url(#clip0_144_38742)">
<path fill-rule="evenodd" clip-rule="evenodd" d="M55.7071 59.3676L45.2264 60.9833C48.8128 61.0596 52.3066 60.4879 55.7071 59.3676ZM78.77 62.0888C74.7016 62.2445 70.6776 62.5382 66.6413 62.2419C70.7091 63.386 74.7613 62.8628 78.77 62.0888ZM71.4584 48.1778C71.7788 46.6396 70.7485 46.6399 69.812 46.5947C66.6453 46.4399 64.5991 48.5124 62.6619 50.5128C61.2497 51.9706 59.9648 53.6641 59.5296 55.7675C59.3633 56.5696 59.4526 57.25 60.6017 56.8777C63.7391 55.8608 66.6562 54.4508 69.0225 52.0884C70.1499 50.9629 71.0338 49.6601 71.4584 48.1778ZM67.0118 60.421C69.4932 61.0327 72.0319 60.8079 74.5507 60.6633C85.4343 60.0374 95.2451 56.2022 104.535 50.6814C110.741 46.9932 116.535 42.7483 122.191 38.2901C122.708 37.8839 123.214 37.4522 123.892 37.3522C124.653 37.2401 125.145 37.3952 124.625 38.2823C124.497 38.5011 124.13 38.6572 124.547 38.88C125.987 39.6493 125.354 40.687 124.885 41.6514C124.004 43.4616 122.437 44.7188 121.042 46.0731C117.134 49.868 113.079 53.5186 108.582 56.6047C104.407 59.4693 99.8647 61.6959 95.2635 63.7939C92.3345 65.1292 89.3369 66.4468 86.1478 66.6876C84.0292 66.8474 82.165 67.7635 80.0934 67.9424C76.1222 68.285 72.1631 68.584 68.1889 68.0385C64.918 67.5891 61.9862 66.3518 59.4849 64.1903C58.6605 63.4774 57.7953 63.2707 56.7776 63.4764C54.0347 64.0303 51.266 64.4974 48.5138 64.9237C44.0361 65.6181 39.4698 65.5973 34.9341 65.4002C27.6999 65.0859 20.5957 64.0492 13.8359 61.2845C9.86292 59.6596 6.05145 57.7985 3.55862 54.0543C2.90226 53.0685 2.4736 52.0381 2.75081 50.8166C2.86967 50.2901 3.1144 49.9218 3.67451 49.8007C4.33666 49.6583 4.30587 50.1031 4.51044 50.5551C5.91273 53.6555 8.92252 54.6111 11.731 55.7839C19.4706 59.0163 27.6412 59.8132 35.9171 59.9657C42.25 60.0821 48.5342 59.578 54.7529 58.3374C55.2467 58.2389 55.8744 58.3775 55.6619 57.4376C54.9213 54.1627 55.7349 51.1194 57.3985 48.3273C59.966 44.017 63.4117 40.788 68.6806 40.3228C71.5118 40.0726 73.1299 41.2938 74.2576 43.89C77.1319 50.5038 73.7111 56.3588 68.4098 59.2316C67.9346 59.4883 67.4602 59.745 66.9863 60.0013C66.9947 60.1416 67.0035 60.2813 67.0118 60.421Z" fill="#0A77FF"/>
<path fill-rule="evenodd" clip-rule="evenodd" d="M126.462 30.1947C129.792 29.814 132.998 28.9926 136.019 27.5248C132.834 28.4146 129.648 29.305 126.462 30.1947ZM130.379 44.6766C131.102 41.35 132.379 38.2046 133.53 35.0178C133.702 34.5415 134.155 34.0739 133.623 33.5251C133.112 32.9982 132.574 33.3303 132.122 33.5167C129.659 34.5305 127.038 34.7632 124.468 35.2881C122.845 35.6203 121.271 36.2627 119.592 36.5528C117.008 36.9989 114.454 37.6397 111.904 38.264C110.611 38.5803 109.228 38.2764 107.993 39.1179C106.782 39.9432 105.745 39.422 104.83 37.4769C104.363 36.4843 104.328 35.2751 105.57 34.6609C106.593 34.156 107.671 33.7216 108.77 33.4266C116.041 31.4755 123.328 29.5831 130.602 27.6403C132.234 27.2044 133.84 26.6576 135.451 26.1427C138.381 25.2062 139.425 25.8136 140.318 28.7757C141.011 31.0751 140.699 33.151 139.528 35.2293C137.275 39.23 135.136 43.2953 133.668 47.6688C133.374 48.5452 133.203 49.4622 132.943 50.3515C132.642 51.3813 132.1 51.5536 131.322 50.762C129.597 49.0085 129.518 48.5153 130.379 44.6766Z" fill="#0A77FF"/>
</g>
<defs>
<clipPath id="clip0_144_38742">
<rect width="131.947" height="61.058" fill="white" transform="translate(12.6267) rotate(11)"/>
</clipPath>
</defs>
</svg>
