<svg width="32" height="32" viewBox="0 0 32 32" fill="none" xmlns="http://www.w3.org/2000/svg">
<path d="M28.6262 26.0404C29.0167 26.4309 29.6499 26.4309 30.0404 26.0404C30.431 25.6498 30.431 25.0167 30.0404 24.6261L28.6262 26.0404ZM2.66666 8.33325C2.11437 8.33325 1.66666 8.78097 1.66666 9.33325C1.66666 9.88554 2.11437 10.3333 2.66666 10.3333L2.66666 8.33325ZM10.6667 10.3333C11.2189 10.3333 11.6667 9.88554 11.6667 9.33325C11.6667 8.78097 11.2189 8.33325 10.6667 8.33325L10.6667 10.3333ZM2.66666 14.9999C2.11437 14.9999 1.66666 15.4476 1.66666 15.9999C1.66666 16.5522 2.11437 16.9999 2.66666 16.9999L2.66666 14.9999ZM7.99999 16.9999C8.55227 16.9999 8.99999 16.5522 8.99999 15.9999C8.99999 15.4476 8.55227 14.9999 7.99999 14.9999L7.99999 16.9999ZM2.66666 21.6666C2.11437 21.6666 1.66666 22.1143 1.66666 22.6666C1.66666 23.2189 2.11437 23.6666 2.66666 23.6666L2.66666 21.6666ZM10.6667 23.6666C11.2189 23.6666 11.6667 23.2189 11.6667 22.6666C11.6667 22.1143 11.2189 21.6666 10.6667 21.6666L10.6667 23.6666ZM25.5098 15.9215C25.5098 19.0078 23.0079 21.5097 19.9216 21.5097V23.5097C24.1124 23.5097 27.5098 20.1124 27.5098 15.9215H25.5098ZM19.9216 21.5097C16.8353 21.5097 14.3333 19.0078 14.3333 15.9215H12.3333C12.3333 20.1124 15.7307 23.5097 19.9216 23.5097V21.5097ZM14.3333 15.9215C14.3333 12.8352 16.8353 10.3333 19.9216 10.3333V8.33325C15.7307 8.33325 12.3333 11.7306 12.3333 15.9215H14.3333ZM19.9216 10.3333C23.0079 10.3333 25.5098 12.8352 25.5098 15.9215H27.5098C27.5098 11.7306 24.1124 8.33325 19.9216 8.33325V10.3333ZM23.9203 21.3345L28.6262 26.0404L30.0404 24.6261L25.3345 19.9203L23.9203 21.3345ZM2.66666 10.3333L10.6667 10.3333L10.6667 8.33325L2.66666 8.33325L2.66666 10.3333ZM2.66666 16.9999L7.99999 16.9999L7.99999 14.9999L2.66666 14.9999L2.66666 16.9999ZM2.66666 23.6666L10.6667 23.6666L10.6667 21.6666L2.66666 21.6666L2.66666 23.6666Z" fill="white"/>
</svg>
