<svg width="32" height="32" viewBox="0 0 32 32" fill="none" xmlns="http://www.w3.org/2000/svg">
<g clip-path="url(#clip0_145_806)">
<g filter="url(#filter0_d_145_806)">
<path fill-rule="evenodd" clip-rule="evenodd" d="M16 29.3334C23.3638 29.3334 29.3333 23.3639 29.3333 16.0001C29.3333 8.63628 23.3638 2.66675 16 2.66675C8.63621 2.66675 2.66667 8.63628 2.66667 16.0001C2.66667 23.3639 8.63621 29.3334 16 29.3334ZM9.33334 12.6667C9.33334 11.5622 10.2288 10.6667 11.3333 10.6667C12.4379 10.6667 13.3333 11.5622 13.3333 12.6667C13.3333 13.7713 12.4379 14.6667 11.3333 14.6667C10.2288 14.6667 9.33334 13.7713 9.33334 12.6667ZM18.3851 12.6667C18.3851 11.5622 19.2806 10.6667 20.3851 10.6667C21.4897 10.6667 22.3851 11.5622 22.3851 12.6667C22.3851 13.7713 21.4897 14.6667 20.3851 14.6667C19.2806 14.6667 18.3851 13.7713 18.3851 12.6667ZM11.8595 19.4041C11.5302 18.7455 10.7293 18.4785 10.0707 18.8078C9.41204 19.1371 9.14508 19.938 9.47439 20.5967C10.1346 21.9171 12.2731 24.0004 16.0003 24.0004C19.7275 24.0004 21.866 21.9171 22.5262 20.5967C22.8555 19.938 22.5886 19.1371 21.9299 18.8078C21.2713 18.4785 20.4704 18.7455 20.1411 19.4041C19.9124 19.8614 18.6731 21.3337 16.0003 21.3337C13.3275 21.3337 12.0882 19.8614 11.8595 19.4041Z" fill="white"/>
</g>
</g>
<defs>
<filter id="filter0_d_145_806" x="0.666672" y="1.66675" width="30.6667" height="30.6667" filterUnits="userSpaceOnUse" color-interpolation-filters="sRGB">
<feFlood flood-opacity="0" result="BackgroundImageFix"/>
<feColorMatrix in="SourceAlpha" type="matrix" values="0 0 0 0 0 0 0 0 0 0 0 0 0 0 0 0 0 0 127 0" result="hardAlpha"/>
<feOffset dy="1"/>
<feGaussianBlur stdDeviation="1"/>
<feComposite in2="hardAlpha" operator="out"/>
<feColorMatrix type="matrix" values="0 0 0 0 0.0627451 0 0 0 0 0.0941176 0 0 0 0 0.156863 0 0 0 0.04 0"/>
<feBlend mode="normal" in2="BackgroundImageFix" result="effect1_dropShadow_145_806"/>
<feBlend mode="normal" in="SourceGraphic" in2="effect1_dropShadow_145_806" result="shape"/>
</filter>
<clipPath id="clip0_145_806">
<rect width="32" height="32" fill="white"/>
</clipPath>
</defs>
</svg>
