<svg width="32" height="32" viewBox="0 0 32 32" fill="none" xmlns="http://www.w3.org/2000/svg">
<path d="M7.25602 22.247L6.86622 23.1679L6.86622 23.1679L7.25602 22.247ZM7.25602 12.4197L7.64583 13.3406L7.64583 13.3406L7.25602 12.4197ZM8.25305 12.2435L8.06326 13.2254L8.06326 13.2254L8.25305 12.2435ZM9.10691 12.8093L9.93709 12.2518L9.93709 12.2518L9.10691 12.8093ZM8.25305 22.4231L8.06326 21.4413L8.06326 21.4413L8.25305 22.4231ZM9.10691 21.8574L8.27673 21.2999L8.27673 21.2999L9.10691 21.8574ZM24.744 22.247L25.1338 23.1679L25.1338 23.1679L24.744 22.247ZM24.744 12.4197L24.3542 13.3406L24.3542 13.3406L24.744 12.4197ZM23.747 12.2435L23.9367 13.2254L23.9367 13.2254L23.747 12.2435ZM22.8931 12.8093L22.0629 12.2518L22.0629 12.2518L22.8931 12.8093ZM23.747 22.4231L23.9367 21.4413L23.9367 21.4413L23.747 22.4231ZM22.8931 21.8574L23.7233 21.2999L23.7233 21.2999L22.8931 21.8574ZM26.3333 22.6667C26.3333 22.1144 25.8856 21.6667 25.3333 21.6667C24.781 21.6667 24.3333 22.1144 24.3333 22.6667H26.3333ZM16 25.6667C15.4477 25.6667 15 26.1144 15 26.6667C15 27.219 15.4477 27.6667 16 27.6667V25.6667ZM7.64583 21.3261C6.08911 20.6671 5 19.1263 5 17.3333H3C3 19.9576 4.59593 22.2069 6.86622 23.1679L7.64583 21.3261ZM5 17.3333C5 15.5404 6.08911 13.9995 7.64583 13.3406L6.86622 11.4988C4.59593 12.4598 3 14.709 3 17.3333H5ZM10.3333 20.5333V14.1333H8.33333V20.5333H10.3333ZM7.64583 13.3406C7.75058 13.2962 7.81774 13.268 7.87582 13.2462C7.93026 13.2257 7.95604 13.219 7.96736 13.2165C7.97487 13.2149 7.97709 13.2148 7.98156 13.2148C7.98847 13.2148 8.01241 13.2155 8.06326 13.2254L8.44284 11.2617C8.13154 11.2015 7.8434 11.1966 7.54177 11.2623C7.28249 11.3188 7.0406 11.425 6.86622 11.4988L7.64583 13.3406ZM10.3333 14.1333C10.3333 13.5564 10.3653 12.8894 9.93709 12.2518L8.27673 13.3668C8.29142 13.3887 8.30309 13.405 8.31428 13.4868C8.33126 13.6107 8.33333 13.7794 8.33333 14.1333H10.3333ZM8.06326 13.2254C8.0288 13.2187 8.02762 13.2137 8.0618 13.2295C8.09135 13.2431 8.13036 13.2645 8.17243 13.2924C8.21449 13.3203 8.24941 13.3479 8.27349 13.3698C8.30134 13.3951 8.29629 13.3959 8.27673 13.3668L9.93709 12.2518C9.75513 11.9808 9.49026 11.7664 9.27714 11.6252C9.06402 11.484 8.7633 11.3237 8.44284 11.2617L8.06326 13.2254ZM6.86622 23.1679C7.0406 23.2417 7.28249 23.3479 7.54177 23.4044C7.8434 23.4701 8.13154 23.4651 8.44284 23.405L8.06326 21.4413C8.01241 21.4511 7.98847 21.4519 7.98156 21.4519C7.97709 21.4519 7.97487 21.4518 7.96736 21.4502C7.95604 21.4477 7.93026 21.441 7.87582 21.4205C7.81774 21.3987 7.75058 21.3704 7.64582 21.3261L6.86622 23.1679ZM8.33333 20.5333C8.33333 20.8872 8.33126 21.056 8.31428 21.1799C8.30309 21.2616 8.29142 21.278 8.27673 21.2999L9.93709 22.4149C10.3653 21.7772 10.3333 21.1102 10.3333 20.5333H8.33333ZM8.44284 23.405C8.7633 23.343 9.06402 23.1827 9.27714 23.0415C9.49026 22.9003 9.75513 22.6858 9.93709 22.4149L8.27673 21.2999C8.29629 21.2707 8.30134 21.2716 8.27349 21.2969C8.24941 21.3188 8.21449 21.3464 8.17243 21.3743C8.13036 21.4021 8.09135 21.4235 8.0618 21.4372C8.02762 21.453 8.0288 21.448 8.06326 21.4413L8.44284 23.405ZM25.1338 23.1679C27.4041 22.2069 29 19.9576 29 17.3333H27C27 19.1263 25.9109 20.6671 24.3542 21.3261L25.1338 23.1679ZM29 17.3333C29 14.709 27.4041 12.4598 25.1338 11.4988L24.3542 13.3406C25.9109 13.9995 27 15.5404 27 17.3333H29ZM23.6667 20.5333V14.1333H21.6667V20.5333H23.6667ZM25.1338 11.4988C24.9594 11.425 24.7175 11.3188 24.4582 11.2623C24.1566 11.1966 23.8685 11.2015 23.5572 11.2617L23.9367 13.2254C23.9876 13.2155 24.0115 13.2148 24.0184 13.2148C24.0229 13.2148 24.0251 13.2149 24.0326 13.2165C24.044 13.219 24.0697 13.2257 24.1242 13.2462C24.1823 13.268 24.2494 13.2962 24.3542 13.3406L25.1338 11.4988ZM23.6667 14.1333C23.6667 13.7794 23.6687 13.6107 23.6857 13.4868C23.6969 13.405 23.7086 13.3887 23.7233 13.3668L22.0629 12.2518C21.6347 12.8894 21.6667 13.5564 21.6667 14.1333H23.6667ZM23.5572 11.2617C23.2367 11.3237 22.936 11.484 22.7229 11.6252C22.5097 11.7664 22.2449 11.9808 22.0629 12.2518L23.7233 13.3668C23.7037 13.3959 23.6987 13.3951 23.7265 13.3698C23.7506 13.3479 23.7855 13.3203 23.8276 13.2924C23.8696 13.2645 23.9087 13.2431 23.9382 13.2295C23.9724 13.2137 23.9712 13.2187 23.9367 13.2254L23.5572 11.2617ZM24.3542 21.3261C24.2494 21.3704 24.1823 21.3987 24.1242 21.4205C24.0697 21.441 24.044 21.4477 24.0326 21.4502C24.0251 21.4518 24.0229 21.4519 24.0184 21.4519C24.0115 21.4519 23.9876 21.4511 23.9367 21.4413L23.5572 23.405C23.8685 23.4651 24.1566 23.4701 24.4582 23.4044C24.7175 23.3479 24.9594 23.2417 25.1338 23.1679L24.3542 21.3261ZM21.6667 20.5333C21.6667 21.1102 21.6347 21.7772 22.0629 22.4149L23.7233 21.2999C23.7086 21.278 23.6969 21.2616 23.6857 21.1799C23.6687 21.056 23.6667 20.8872 23.6667 20.5333H21.6667ZM23.9367 21.4413C23.9712 21.448 23.9724 21.453 23.9382 21.4372C23.9087 21.4235 23.8696 21.4021 23.8276 21.3743C23.7855 21.3464 23.7506 21.3188 23.7265 21.2969C23.6987 21.2716 23.7037 21.2707 23.7233 21.2999L22.0629 22.4149C22.2449 22.6858 22.5097 22.9003 22.7229 23.0415C22.936 23.1827 23.2367 23.343 23.5572 23.405L23.9367 21.4413ZM7.66667 13.3333C7.66667 8.73096 11.3976 5 16 5V3C10.2931 3 5.66667 7.62639 5.66667 13.3333H7.66667ZM16 5C20.6024 5 24.3333 8.73096 24.3333 13.3333H26.3333C26.3333 7.62639 21.7069 3 16 3V5ZM24.3333 22.6667V24H26.3333V22.6667H24.3333ZM22.6667 25.6667H16V27.6667H22.6667V25.6667ZM24.3333 24C24.3333 24.9205 23.5871 25.6667 22.6667 25.6667V27.6667C24.6917 27.6667 26.3333 26.025 26.3333 24H24.3333Z" fill="white"/>
</svg>
