<svg width="75" height="70" viewBox="0 0 75 70" fill="none" xmlns="http://www.w3.org/2000/svg">
<g clip-path="url(#clip0_199_2160)">
<path fill-rule="evenodd" clip-rule="evenodd" d="M3.31365 57.598C7.82127 40.1674 15.2109 24.171 27.5351 10.6301C14.4326 23.7834 7.18208 39.8487 3.31365 57.598ZM0.00889472 64.3162C0.393597 59.3616 1.69754 54.2726 3.13884 49.2093C6.33954 37.9623 11.3288 27.5474 18.1755 17.9996C22.9602 11.3271 28.5102 5.50774 36.0794 1.75543C38.5047 0.55319 40.6031 0.811063 42.7876 1.97295C44.0125 2.62377 44.4079 4.54349 43.3519 4.93937C40.6732 5.94337 39.4489 8.34434 37.6878 10.1997C32.3477 15.825 27.1932 21.5993 23.0732 28.2005C18.0703 36.2151 14.4332 44.8061 11.61 53.7563C10.2847 57.9582 8.86776 62.1351 7.87479 66.4335C7.74457 66.9984 6.93235 67.3493 7.28971 68.1135C7.32776 68.1954 7.15949 68.379 7.07268 68.5059C6.7956 68.9111 2.66495 69.5824 2.24695 69.2947C0.288354 67.9469 -0.0660242 67.2107 0.00889472 64.3162Z" fill="#0A77FF"/>
<path fill-rule="evenodd" clip-rule="evenodd" d="M43.3818 26.8723L43.0495 26.5935C42.1485 27.6419 41.2476 28.6904 40.3466 29.7388C40.4402 29.8167 40.5332 29.8959 40.6268 29.9744C41.5449 28.9402 42.4637 27.9066 43.3818 26.8723ZM38.678 32.1563C35.2258 36.507 32.1225 41.0822 30.278 46.3851C32.5757 41.3521 35.5878 36.7415 38.678 32.1563ZM50.8986 22.954C51.5698 24.9102 50.4017 25.759 49.2152 26.7678C48.0945 27.7211 47.6864 29.2733 46.6201 30.379C45.3057 31.7434 43.9351 33.2289 43.0495 34.79C42.3713 35.9849 41.0012 36.5791 40.6997 38.1065C40.4574 39.3333 39.7122 40.5772 38.4115 41.2369C37.8677 41.5134 37.8807 42.1105 37.6787 42.5972C37.1604 43.8459 36.7825 45.2073 35.4166 45.9001C35.2069 46.007 34.9421 46.3053 34.9534 46.5002C35.0671 48.3779 33.3475 49.2757 32.7036 50.7458C32.4051 51.4269 31.7174 51.6607 30.9651 51.6991C30.3141 51.7328 29.1999 52.0872 29.0975 51.8887C28.5389 50.799 27.706 49.8835 28.1041 48.3135C29.5026 42.7898 32.3305 38.0327 35.5297 33.435C38.7609 28.7925 42.6035 24.6905 46.818 20.9339C48.4487 19.4809 50.2299 18.2063 52.2332 17.2802C53.6619 16.6192 54.9994 17.061 56.3233 17.6127C56.8286 17.823 57.0223 18.2577 56.998 18.781C56.9755 19.2701 56.6307 19.4981 56.2386 19.7278C54.8413 20.5476 53.1549 21.0402 52.7461 22.9711C52.6614 23.3698 52.235 23.8417 51.7131 23.8594C51.212 23.8771 51.6622 23.1518 50.8986 22.954Z" fill="#0A77FF"/>
<path fill-rule="evenodd" clip-rule="evenodd" d="M62.5581 35.2966C63.619 34.7416 64.4769 34.8226 64.9817 34.1435C65.1859 33.8689 65.6802 33.5529 65.2507 33.1647C64.9029 32.8505 64.4354 32.9898 64.1331 33.3256C63.6885 33.8205 63.298 34.3627 62.5581 35.2966ZM58.9183 38.8789C56.5554 41.318 54.3669 43.8854 53.278 47.1978C54.8828 44.2352 56.9452 41.5915 58.9183 38.8789ZM63.6494 38.7472C64.5988 39.5697 64.1792 39.8997 63.5332 40.6931C62.533 41.9208 61.6173 43.3223 60.3527 44.1711C58.735 45.2566 58.4205 47.2474 56.8787 48.3125C55.5644 49.2202 53.6164 49.1327 52.5409 48.2023C51.6089 47.3955 52.1056 46.6475 52.3828 45.9153C53.8423 42.059 56.4666 39.0223 59.4295 36.262C61.5718 34.2671 64.0129 32.6458 66.4085 30.9716C67.1853 30.4282 67.4024 30.778 67.4975 31.5271C67.5395 31.8594 67.3848 32.285 67.9171 32.5596C68.2235 32.0151 68.5222 31.491 68.8146 30.9634C68.8846 30.8369 69.0177 30.6702 68.9827 30.5711C68.5923 29.4628 68.7516 29.239 70.2584 28.9487C70.1633 29.4879 69.5038 29.6546 69.5248 30.2189C70.0098 30.7559 70.1837 29.274 70.7235 29.9916C71.1799 30.5996 70.999 31.5376 70.6996 31.7434C69.5768 32.5141 69.4834 33.9196 68.5613 34.7958C68.2801 35.0628 68.8 35.9629 67.8009 35.9594C67.2512 35.9583 66.8304 37.0525 66.1407 36.1786C66.3408 36.8438 65.5892 37.0367 65.4853 37.3731C65.1953 38.3053 64.4494 38.4411 63.6494 38.7472Z" fill="#0A77FF"/>
<path fill-rule="evenodd" clip-rule="evenodd" d="M71.2163 28.1782C72.1763 28.3657 72.9396 29.1432 73.3036 27.8557C73.4636 27.2913 73.985 27.61 74.223 27.9857C74.5903 28.5669 75.0663 29.2444 74.5976 29.8619C74.0503 30.5844 73.3636 31.4769 72.5596 31.6807C71.927 31.84 71.5596 30.7932 71.633 30.0388C71.6896 29.4475 72.057 28.8525 71.2163 28.1782Z" fill="#0A77FF"/>
</g>
<defs>
<clipPath id="clip0_199_2160">
<rect width="75" height="70" fill="white"/>
</clipPath>
</defs>
</svg>
