<?xml version="1.0" encoding="utf-8"?>
<!-- Generator: Fusion 360, Shaper Origin Export Add-In, Version 1.8.0  -->
<svg xmlns="http://www.w3.org/2000/svg" xmlns:xlink="http://www.w3.org/1999/xlink" xmlns:shaper="http://www.shapertools.com/namespaces/shaper" shaper:fusionaddin="version:1.8.0" width="7.6479095cm" height="6.2467702cm" version="1.1" x="0cm" y="0cm" viewBox="0 0 7.6479095 6.2467702" enable-background="new 0 0 7.6479095 6.2467702" xml:space="preserve"><path d="M5.053998,1.116783 L5.0920275,1.0651915 5.1266285,1.0159538 5.1903752,0.9164872 5.2219378,0.8622336 5.2549047,0.8022826 5.2722927,0.7695414 5.2904846,0.7346207 5.3096311,0.69727 5.3298849,0.6572359 5.3449624,0.6273581 5.3587068,0.6003421 5.3712284,0.576003 5.3826386,0.5541576 5.3930501,0.5346202 5.4025718,0.5172069 5.4193955,0.4880153 5.4340011,0.4651058 5.4472776,0.4470022 5.4734087,0.419309 5.4994825,0.3990813 5.5310999,0.3813899 5.5496141,0.3733387 5.5702662,0.3657333 5.5933074,0.3585123 5.618987,0.3516119 5.6475562,0.3449708 5.679266,0.3385251 5.7143667,0.3322127 5.7531094,0.3259724 5.7957435,0.3197393 5.8425202,0.3134523 5.8936905,0.3070484 5.9495046,0.3004661 6.0470189,0.2892547 6.0499445,0.2679131 6.0510797,0.2571949 6.0520104,0.2437891 6.05287,0.2157581 6.05287,0.1849439 5.6263863,0.1861805 5.1999026,0.1874155 5.1721448,0.2672834 5.1331788,0.3709105 5.0881066,0.4757881 5.0383799,0.5787355 4.9854487,0.6765721 4.9558564,0.7262129 4.9225329,0.7786198 4.8861375,0.8328768 4.8473286,0.8880677 4.7651069,0.9975852 4.7230117,1.0500788 4.681139,1.0998399 4.6691645,1.1134812 4.6556025,1.1285383 4.6245119,1.1620883 4.5894529,1.1988811 4.5520139,1.2373024 4.4763434,1.3125845 4.441286,1.3462212 4.4101962,1.3750381 4.3112342,1.4605403 4.2091431,1.5407002 4.1039236,1.6155144 3.995579,1.6849821 3.8841126,1.7491026 3.7695243,1.8078734 3.6518192,1.8612945 3.5309979,1.9093626 3.4425203,1.9405269 3.3532248,1.9686977 3.2631663,1.9938711 3.1723986,2.0160404 3.0809758,2.0352023 2.9889527,2.0513504 2.8963841,2.0644806 2.8033231,2.0745879 2.7098254,2.0816666 2.6159441,2.0857118 2.5217348,2.0867194 2.4272507,2.0846837 2.3325466,2.079599 2.2376773,2.071462 2.142696,2.0602661 2.047659,2.0460073 1.9658765,2.0311007 1.8842756,2.0136137 1.8029953,1.9936053 1.7221779,1.971135 1.6419641,1.9462643 1.5624929,1.919052 1.4839083,1.8895586 1.4063484,1.8578439 1.3299557,1.8239676 1.25487,1.7879909 1.1812335,1.7499729 1.1091862,1.7099739 1.0388703,1.668053 0.970424,1.6242722 0.9039906,1.5786896 0.8397106,1.5313666 0.7202887,1.4355755 0.6067044,1.3348617 0.4990607,1.229342 0.3974607,1.1191343 0.3020062,1.0043564 0.2128015,0.885125 0.1299485,0.7615574 0.0535504,0.6337719 0.0244141,0.5800016 -0.0044851,0.5228346 -0.0587322,0.4048972 -0.08266,0.3474211 -0.1035104,0.2931364 -0.1205729,0.2436893 -0.1274623,0.2212951 -0.1331387,0.200728 -0.1384324,0.1801561 -0.5642054,0.1801561 -0.9899779,0.1801561 -0.9899779,0.2334013 -0.9896287,0.2545458 -0.9886632,0.2714243 -0.9872057,0.2826021 -0.9853798,0.2866465 -0.9798952,0.2868338 -0.9712339,0.287372 -0.9597787,0.2882242 -0.9459137,0.2893537 -0.9124848,0.2922956 -0.8740136,0.295904 -0.7942051,0.3039388 -0.7589993,0.3077755 -0.7439128,0.30952 -0.7310141,0.3111001 -0.6978701,0.3155216 -0.6670768,0.3200779 -0.638506,0.3248134 -0.6120289,0.329773 -0.5648462,0.3405436 -0.5245017,0.3527487 -0.489971,0.3667475 -0.460229,0.382898 -0.4342505,0.4015603 -0.411009,0.4230916 -0.3861759,0.4513737 -0.3744357,0.467647 -0.3617505,0.4876636 -0.3470737,0.5131657 -0.3386611,0.528518 -0.3293578,0.5458954 -0.3190333,0.5655138 -0.3075569,0.5875923 -0.2947973,0.6123477 -0.2806239,0.6399984 -0.2514642,0.6963491 -0.2240393,0.7479332 -0.1978244,0.7956553 -0.172294,0.8404151 -0.12119,0.924657 -0.0665282,1.0078724 0.0261463,1.1377344 0.1232807,1.2610878 0.2250701,1.3781264 0.3317098,1.4890416 0.4433942,1.594028 0.5603183,1.693277 0.682678,1.7869817 0.8106675,1.8753358 0.8927947,1.9274041 0.976015,1.9767121 1.0603239,2.0232573 1.1457165,2.0670397 1.2321871,2.1080545 1.3197315,2.1463032 1.4083449,2.1817817 1.4980215,2.2144893 1.5887564,2.2444235 1.6805456,2.2715843 1.7733825,2.2959684 1.867263,2.3175742 1.9621822,2.3364008 2.0581344,2.3524451 2.1551154,2.3657069 2.2531196,2.376183 2.2772796,2.3780952 2.3055273,2.3797866 2.3372609,2.3812555 2.3718782,2.3824987 2.4473508,2.3842955 2.5271254,2.3851551 2.6063815,2.3850537 2.6802977,2.3839692 2.7137471,2.3830507 2.7440542,2.3818779 2.7706155,2.3804482 2.7928298,2.3787577 2.9001022,2.3674481 3.0049798,2.3534118 3.1075984,2.3366012 3.2080955,2.3169665 3.3066068,2.2944611 3.4032689,2.269035 3.4982192,2.2406392 3.5915926,2.2092271 3.6835257,2.1747488 3.774156,2.1371561 3.8636191,2.0964006 3.9520526,2.0524333 4.0395913,2.0052068 4.1263726,1.954672 4.2125324,1.900779 4.2982079,1.8434812 4.3563154,1.8026963 4.4120519,1.7621788 4.5172019,1.6811905 4.6152372,1.5989966 4.7077387,1.5140784 4.7962859,1.424917 4.8824579,1.3299937 4.9678358,1.2277881 5.0107194,1.1734804 5.053998,1.116783z" transform="matrix(1,0,0,-1,1.2853204,2.3851551)" stroke="rgb(100,100,100)" stroke-width="0.0010cm" stroke-linecap="round" stroke-linejoin="round" fill="none" /><path d="M5.5069186,-0.1444598 L5.5140047,-0.1438734 5.5242183,-0.143318 5.537476,-0.1427938 5.5536928,-0.1423031 5.5727853,-0.141845 5.5946708,-0.1414214 5.6192634,-0.1410345 5.6464798,-0.1406837 5.6762374,-0.1403704 5.7084502,-0.1400964 5.7430356,-0.1398609 5.7799094,-0.1396671 5.8189875,-0.1395141 5.8601862,-0.1394029 5.9486091,-0.1393137 5.9838995,-0.1393145 6.017025,-0.1393178 6.0770594,-0.1393391 6.1292758,-0.1393914 6.1742384,-0.1394871 6.21251,-0.1396409 6.2446533,-0.1398658 6.2712317,-0.1401758 6.2928097,-0.1405831 6.3099491,-0.1411024 6.3232142,-0.1417469 6.3331677,-0.1425296 6.3403724,-0.1434653 6.3487916,-0.1458453 6.3529774,-0.1489949 6.3582838,-0.1566216 6.3599891,-0.1624857 6.3611807,-0.170954 6.3619471,-0.1829547 6.3623773,-0.1994168 6.3625596,-0.2212672 6.3625842,-0.2494339 6.3622726,-0.2850941 6.3614858,-0.3150961 6.3609501,-0.3269913 6.3603399,-0.3362889 6.3596693,-0.3425955 6.3589536,-0.3455186 6.3541462,-0.3508045 6.3448126,-0.3548186 6.3370902,-0.3564037 6.3266059,-0.3577376 6.3128165,-0.3588409 6.2951783,-0.3597373 6.2731488,-0.3604464 6.2461843,-0.3609928 6.2137409,-0.3613968 6.1752755,-0.3616806 6.130245,-0.3618671 6.0781055,-0.3619775 6.0183148,-0.3620339 5.9853799,-0.3620486 5.9503282,-0.3620585 5.893221,-0.3620871 5.8416753,-0.3621468 5.7953844,-0.3622433 5.7540442,-0.3623831 5.717347,-0.3625696 5.684987,-0.3628093 5.6566591,-0.3631078 5.6320566,-0.3634693 5.6108745,-0.3639003 5.592806,-0.3644049 5.5775445,-0.3649897 5.5647857,-0.3656596 5.5455485,-0.3672749 5.5326473,-0.3692934 5.50398,-0.3772513 5.4798666,-0.3883179 5.459953,-0.4030192 5.4438826,-0.421881 5.4313005,-0.4454309 5.4218491,-0.4741939 5.4151744,-0.5086984 5.4109198,-0.5494694 5.4077121,-0.5941719 5.8734759,-0.5954527 5.914817,-0.595568 5.9536406,-0.5956784 5.990027,-0.5957864 6.0240555,-0.5958944 6.055807,-0.596004 6.0853625,-0.5961168 6.1382045,-0.5963589 6.1832252,-0.5966362 6.2210674,-0.5969625 6.2523732,-0.5973526 6.2777862,-0.5978213 6.2979501,-0.5983823 6.3135068,-0.5990514 6.3250994,-0.5998414 6.3333705,-0.6007689 6.3425234,-0.60309 6.3461081,-0.6061309 6.3494033,-0.6144609 6.3505966,-0.6212869 6.3515183,-0.6303015 6.3521931,-0.6418164 6.3526446,-0.6561414 6.3528981,-0.6735891 6.3529774,-0.6944686 6.3529259,-0.7187243 6.3527149,-0.7376475 6.3522585,-0.7520216 6.3514709,-0.7626303 6.3502662,-0.7702578 6.3485593,-0.7756884 6.3432971,-0.7830918 6.3389722,-0.7862488 6.3296263,-0.7886321 6.321414,-0.7895669 6.3099597,-0.7903505 6.2946,-0.7909941 6.2746734,-0.7915127 6.2495164,-0.7919191 6.2184682,-0.7922267 6.1808657,-0.7924508 6.1360462,-0.7926029 6.0833473,-0.7926978 6.0538367,-0.792728 6.0221073,-0.7927485 5.9880772,-0.7927624 5.951663,-0.7927689 5.9127829,-0.7927722 5.8713527,-0.792773 5.4090903,-0.792773 5.4092269,-0.8109249 5.4097168,-0.8267957 5.4108969,-0.8446761 5.4148612,-0.882776 5.4201831,-0.9178415 5.4230604,-0.9319302 5.4259262,-0.942493 5.4336494,-0.9609778 5.4438802,-0.9775381 5.4565736,-0.9921437 5.4716887,-1.0047627 5.489183,-1.0153656 5.5090132,-1.023923 5.5311375,-1.0304039 5.5555126,-1.0347778 5.5610406,-1.0352424 5.570245,-1.0356963 5.5829139,-1.0361363 5.598837,-1.03656 5.6178035,-1.036964 5.6396023,-1.0373476 5.6640224,-1.0377075 5.6908528,-1.0380412 5.7509011,-1.038621 5.81806,-1.0390684 5.8906406,-1.0393628 5.9669564,-1.0394863 6.0005719,-1.0395003 6.0321271,-1.0395174 6.0893235,-1.0395616 6.1390821,-1.0396344 6.1819403,-1.0397481 6.2184322,-1.0399174 6.2490943,-1.0401546 6.2744623,-1.0404752 6.2950728,-1.0408906 6.3114621,-1.0414165 6.3241637,-1.0420651 6.3337165,-1.0428519 6.3406545,-1.0437884 6.3488316,-1.0461692 6.3529823,-1.0493164 6.3582895,-1.0569431 6.3599948,-1.0628072 6.3611856,-1.0712755 6.361952,-1.083277 6.3623822,-1.0997383 6.3625646,-1.1215886 6.3625891,-1.1497554 6.3622775,-1.1854155 6.3614907,-1.2154184 6.360955,-1.2273128 6.3603448,-1.2366104 6.3596742,-1.2429178 6.3589585,-1.2458401 6.3541625,-1.2511374 6.3448723,-1.2551483 6.3371786,-1.2567243 6.3267245,-1.2580411 6.3129646,-1.2591207 6.2953533,-1.2599836 6.2733451,-1.2606518 6.2463937,-1.2611458 6.2139544,-1.261486 6.17548,-1.2616945 6.1304265,-1.2617927 6.0782486,-1.2618001 6.0183991,-1.2617395 5.9854273,-1.2616896 5.9503331,-1.2616308 5.8722671,-1.2614132 5.7976107,-1.2610484 5.7281315,-1.2605561 5.6655911,-1.2599557 5.637475,-1.2596212 5.6117554,-1.2592671 5.5886537,-1.2588958 5.5683892,-1.2585089 5.5511836,-1.2581106 5.5372569,-1.2577017 5.526829,-1.2572862 5.5201216,-1.2568642 5.4761797,-1.2509689 5.4300777,-1.2413655 5.3865693,-1.2292094 5.3672724,-1.2225347 5.3504053,-1.215654 5.3151975,-1.1968216 5.2838713,-1.1736586 5.2564169,-1.146151 5.232827,-1.1142858 5.2130925,-1.0780475 5.197202,-1.0374229 5.185149,-0.9923964 5.1769228,-0.9429551 5.1754948,-0.9267481 5.1742983,-0.9040268 5.1733274,-0.8757447 5.1725783,-0.8428539 5.1720458,-0.8063072 5.1717269,-0.7670566 5.1717097,-0.6842526 5.1724916,-0.6020628 5.1731712,-0.5635802 5.1740365,-0.5281081 5.1750842,-0.4965996 5.1763094,-0.4700072 5.177708,-0.4492831 5.179275,-0.4353809 5.1856021,-0.4025628 5.1936181,-0.3718738 5.2033647,-0.3432727 5.2148844,-0.3167245 5.2282207,-0.2921899 5.2434152,-0.2696321 5.2605104,-0.2490127 5.2795488,-0.2302949 5.3005739,-0.2134401 5.3236265,-0.1984109 5.3487508,-0.1851695 5.3759876,-0.1736775 5.4053804,-0.163899 5.4369716,-0.1557947 5.4708038,-0.1493278 5.5069186,-0.1444598z" transform="matrix(1,0,0,-1,1.2853204,2.3851551)" stroke="rgb(100,100,100)" stroke-width="0.0010cm" stroke-linecap="round" stroke-linejoin="round" fill="none" /><path d="M2.5417572,-3.6825187 L2.5368434,-3.7049088 2.5317178,-3.7238451 2.5185688,-3.7554735 2.509416,-3.7702234 2.4977907,-3.7856375 2.4831279,-3.8027433 2.4648615,-3.822571 2.4281324,-3.8616151 2.3732997,-3.8609028 2.3477395,-3.8602047 2.3186796,-3.8588315 2.2896958,-3.8569815 2.2643613,-3.8548525 2.2431497,-3.8525719 2.2253912,-3.8503084 2.2129465,-3.8483239 2.2076753,-3.8468799 2.2068296,-3.8427263 2.2104887,-3.8359744 2.2191361,-3.8261955 2.2332551,-3.8129594 2.2533306,-3.7958372 2.2798437,-3.7743999 2.2956671,-3.7619285 2.3132808,-3.7482177 2.3327462,-3.7332126 2.354123,-3.7168608 2.3753869,-3.7006686 2.3943665,-3.6862666 2.4112278,-3.673545 2.4261392,-3.6623916 2.4392653,-3.6526957 2.4507736,-3.6443469 2.4696002,-3.6312433 2.4839507,-3.6221927 2.4951555,-3.6163057 2.5134555,-3.6104669 2.5343252,-3.6066564 2.5421489,-3.6054975 2.5467748,-3.6050718 2.5516085,-3.608149 2.5525752,-3.6126575 2.5525359,-3.6197326 2.5514629,-3.6298157 2.5493282,-3.643347 2.5461025,-3.6607678 2.5417572,-3.6825187z" transform="matrix(1,0,0,-1,1.2853204,2.3851551)" stroke="rgb(100,100,100)" stroke-width="0.0010cm" stroke-linecap="round" stroke-linejoin="round" fill="none" /><path d="M2.1799935,-3.0155371 L2.1879784,-2.9949021 2.1923442,-2.986393 2.1962471,-2.9806176 2.2022299,-2.9697901 2.2047178,-2.9574664 2.2069384,-2.9448405 2.2122774,-2.9332856 2.2171724,-2.9225526 2.2183281,-2.9119039 2.2198927,-2.9038617 2.2463174,-2.8908587 2.2766106,-2.8778942 2.3102538,-2.8651374 2.3466811,-2.8528546 2.3854255,-2.8413909 2.4261801,-2.8311507 2.4688085,-2.8225503 2.5132968,-2.8159386 2.5158044,-2.8157636 2.521581,-2.8153146 2.5302554,-2.8146227 2.5414546,-2.8137173 2.5699378,-2.811388 2.6040546,-2.8085684 2.6516386,-2.8051517 2.7043963,-2.8022364 2.7587784,-2.7999116 2.8112336,-2.798268 2.8582115,-2.7973954 2.8785381,-2.797276 2.8961633,-2.7973831 2.9106445,-2.7977278 2.9215378,-2.7983212 2.928399,-2.7991751 2.9307847,-2.8002996 2.9296241,-2.8087299 2.9262668,-2.8213035 2.9209015,-2.837533 2.9137165,-2.8569305 2.9049006,-2.879009 2.8946404,-2.9032798 2.8705409,-2.9564486 2.855609,-2.9885579 2.8426547,-3.0174935 2.8316003,-3.0434561 2.8223714,-3.0666461 2.8148887,-3.0872659 2.8090777,-3.1055147 2.8048607,-3.1215949 2.8021609,-3.1357065 2.7998046,-3.1463933 2.7957717,-3.1595075 2.7849357,-3.1863701 2.7785366,-3.2022299 2.7714669,-3.2239441 2.758749,-3.2734978 2.7486098,-3.319273 2.7443323,-3.3368962 2.7413438,-3.3477604 2.7392231,-3.3555192 2.7385377,-3.3614651 2.7414796,-3.3693003 2.7458421,-3.3788016 2.7466943,-3.392146 2.74428,-3.4051952 2.7388452,-3.4138111 2.7347951,-3.4172695 2.7337351,-3.4203754 2.7358354,-3.4242652 2.7412653,-3.4300762 2.7462879,-3.4363227 2.7494915,-3.4437077 2.7511869,-3.453305 2.7516834,-3.4661898 2.752655,-3.4798822 2.7555167,-3.4957768 2.7601852,-3.5135058 2.7665785,-3.5327009 2.7722521,-3.5479473 2.7770424,-3.5600457 2.7811276,-3.5692873 2.7846846,-3.5759624 2.790925,-3.5827732 2.7971817,-3.5828035 2.8001547,-3.5831989 2.8033534,-3.5863686 2.8065971,-3.5920631 2.8097034,-3.6000324 2.8154571,-3.6138451 2.8181364,-3.6180469 2.8202237,-3.6195898 2.82562,-3.6220782 2.8328844,-3.6280606 2.8393079,-3.6321495 2.8504457,-3.6370191 2.8805991,-3.6466615 2.8931707,-3.6498827 2.9027995,-3.6522009 2.9099592,-3.6536293 2.9151232,-3.6541806 2.9213579,-3.6527031 2.925291,-3.6478711 2.9311331,-3.6415718 2.9373555,-3.6389518 2.9406074,-3.6358128 2.9419323,-3.6315627 2.9430994,-3.6252364 2.9441398,-3.6166156 2.9450877,-3.6054836 2.9459743,-3.5916226 2.9468314,-3.5748161 2.9504104,-3.5268397 2.9569117,-3.4797538 2.9668039,-3.4320362 2.9805548,-3.3821647 2.9986331,-3.3286181 3.0215074,-3.2698738 3.0348902,-3.238077 3.0496463,-3.20441 3.0658361,-3.1686828 3.0835178,-3.1307052 3.0959707,-3.1043419 3.1055807,-3.0843183 3.1128426,-3.0698129 3.1182472,-3.0600037 3.1222874,-3.0540708 3.1254567,-3.0511919 3.1311491,-3.0513126 3.1369102,-3.0496964 3.1422738,-3.0425535 3.1480276,-3.0360114 3.1536447,-3.0327767 3.1618317,-3.0292823 3.1731502,-3.0253127 3.1881574,-3.0206554 3.2074126,-3.0150959 3.2314745,-3.0084208 3.2632268,-2.9998523 3.2920806,-2.9923434 3.3179221,-2.9859194 3.3406369,-2.9806061 3.3601121,-2.9764288 3.3762333,-2.9734133 3.3888866,-2.9715854 3.3979584,-2.9709703 3.4073501,-2.9687572 3.4137181,-2.9634369 3.4213864,-2.9568636 3.4351316,-2.9499964 3.4509109,-2.9445252 3.4646781,-2.9421403 3.4753817,-2.9395754 3.4888807,-2.9337072 3.502154,-2.9282462 3.512312,-2.9266608 3.5167841,-2.9261741 3.5230915,-2.9239806 3.5378599,-2.9158865 3.5484334,-2.9102984 3.5637963,-2.9042874 3.6025267,-2.8932253 3.6229368,-2.888507 3.6388199,-2.884537 3.6507633,-2.8809768 3.6593551,-2.8774877 3.7619099,-2.8265199 3.768448,-2.8224252 3.7785332,-2.8142011 3.7999574,-2.7997059 3.8233126,-2.7889537 3.8463039,-2.7804658 3.8575979,-2.7757233 3.8668522,-2.7714156 3.876315,-2.7670244 3.8826862,-2.7651217 3.8868247,-2.7655903 3.8895842,-2.768313 3.8916354,-2.7710046 3.8933546,-2.7716168 3.8949658,-2.770087 3.8966948,-2.7663542 3.900075,-2.7611848 3.9037244,-2.7604209 3.9064029,-2.760234 3.9108562,-2.7579693 3.9226091,-2.7487421 3.9400175,-2.7371332 3.9505027,-2.7336421 3.963035,-2.7313222 3.9858496,-2.7269155 4.0036882,-2.7204113 4.0165362,-2.7118155 4.0243821,-2.7011349 4.0274025,-2.6952589 4.0298757,-2.6924106 4.0321061,-2.6924053 4.0343978,-2.6950593 4.036889,-2.6978785 4.0397041,-2.6980977 4.0433723,-2.6955243 4.0484251,-2.689966 4.0554327,-2.6803821 4.0584424,-2.6739688 4.0620623,-2.6719139 4.0705396,-2.6728086 4.075518,-2.6732732 4.0824282,-2.6727088 4.1013988,-2.6686657 4.1261583,-2.6610251 4.1554129,-2.6501322 4.1675141,-2.6453015 4.1747752,-2.5779279 4.172562,-2.5740008 4.1691229,-2.5727254 4.1635286,-2.5718482 4.1553327,-2.5713235 4.1440853,-2.5711056 4.1293374,-2.5711485 4.11064,-2.571407 4.0812137,-2.5725311 4.0485044,-2.5747921 4.0164969,-2.5778612 3.9891767,-2.5814108 3.973772,-2.5837176 3.9606124,-2.5854736 3.9398818,-2.587389 3.9246963,-2.5872733 3.9127652,-2.5852397 3.8937234,-2.5826544 3.8747913,-2.5866538 3.8634735,-2.5895584 3.8466221,-2.5926553 3.8054241,-2.5979453 3.7622886,-2.6041935 3.7436713,-2.6083356 3.7299212,-2.6125926 3.7074935,-2.6195597 3.6969732,-2.6216792 3.6887168,-2.6224574 3.6773279,-2.6231673 3.6607962,-2.6251871 3.6400271,-2.6283539 3.6159284,-2.6325034 3.5613697,-2.6431006 3.5043737,-2.6556705 3.477136,-2.6618344 3.4464019,-2.6684011 3.3830879,-2.6810835 3.354827,-2.6863702 3.3317098,-2.6904027 3.3227541,-2.6918189 3.3158946,-2.6927656 3.3114012,-2.6931917 3.3095438,-2.6930453 3.3105833,-2.6901803 3.3143938,-2.6828587 3.3206473,-2.6716252 3.3290149,-2.6570261 3.3391688,-2.6396062 3.350781,-2.619911 3.3770716,-2.5758779 3.4052612,-2.5292897 3.4327279,-2.4845103 3.4453698,-2.4641624 3.456847,-2.4459034 3.4668316,-2.4302783 3.4749956,-2.4178327 3.4897198,-2.3958928 3.5012175,-2.3789571 3.5099851,-2.3663856 3.5165199,-2.3575366 3.5213192,-2.3517693 3.5248786,-2.3484439 3.5302692,-2.3465517 3.536472,-2.3454063 3.5493208,-2.3422865 3.5669386,-2.3376692 3.58745,-2.3320308 3.6282358,-2.3217754 3.643961,-2.3186553 3.6536758,-2.3175098 3.6661688,-2.3155661 3.6758287,-2.3108928 3.6785489,-2.3093879 3.6833793,-2.3076438 3.6982883,-2.3036894 3.718399,-2.2995297 3.7415563,-2.2956636 3.7675467,-2.2914213 3.7953757,-2.286238 3.8217072,-2.2807693 3.843205,-2.2756711 3.8544262,-2.2730829 3.8696689,-2.2700842 3.8882584,-2.266782 3.9095198,-2.2632844 3.9573565,-2.2561316 4.00778,-2.2494852 4.0576311,-2.2433806 4.1039089,-2.2377033 4.124094,-2.2352231 4.1414501,-2.233088 4.1553327,-2.2313766 4.1650948,-2.2301674 4.174242,-2.2291954 4.1863604,-2.2281604 4.2174232,-2.2260302 4.2922555,-2.2224181 4.3831131,-2.2191801 4.396967,-2.2346972 4.4044113,-2.2423051 4.4105896,-2.2465601 4.416587,-2.2479684 4.4234907,-2.247034 4.4299478,-2.245799 4.4338057,-2.2463102 4.4356729,-2.2488967 4.4361596,-2.2538894 4.4376628,-2.2609673 4.4420605,-2.2663919 4.4491916,-2.2701447 4.4588916,-2.2722074 4.4709969,-2.2725615 4.4853449,-2.2711895 4.5017711,-2.2680734 4.5201127,-2.2631948 4.5291453,-2.2594817 4.539089,-2.2537365 4.5591024,-2.2384607 4.5749364,-2.2219875 4.5796556,-2.2147456 4.5813731,-2.2089375 4.5808358,-2.2060622 4.5792949,-2.2011554 4.5736344,-2.1863126 4.5652569,-2.1665413 4.5550277,-2.1439713 4.544541,-2.1210193 4.5354642,-2.1002044 4.5287699,-2.0838174 4.5266189,-2.0780007 4.5254281,-2.0741502 4.520565,-2.0632872 4.5134438,-2.0560392 4.5063773,-2.0486407 4.5016484,-2.0374129 4.4966643,-2.0247596 4.4867819,-2.013185 4.4706436,-2.0014731 4.4598051,-1.9951877 4.4468942,-1.9884124 4.4189589,-1.9719781 4.4054337,-1.9626281 4.3944954,-1.9540266 4.3805597,-1.9435332 4.3700484,-1.938415 4.3666534,-1.9380306 4.3648058,-1.9391813 4.3647363,-1.9419302 4.3666746,-1.946341 4.3669911,-1.9476905 4.3654282,-1.9471384 4.357826,-1.9410289 4.3467578,-1.9337785 4.337546,-1.9331291 4.3314324,-1.9338962 4.3208107,-1.9336738 4.2920199,-1.9305928 4.2693901,-1.9280362 4.2448228,-1.9277744 4.2296889,-1.9285784 4.211519,-1.930044 4.1894642,-1.9322024 4.1626748,-1.9350821 4.0799493,-1.9436911 4.0409514,-1.9474304 4.0242324,-1.9489427 4.010201,-1.9501351 3.9828889,-1.9527793 3.9532499,-1.9563575 3.9248599,-1.9603986 3.9012912,-1.9644356 3.8790589,-1.9686714 3.8543084,-1.9732564 3.8300577,-1.9776369 3.8093229,-1.9812626 3.7693632,-1.9889195 3.752452,-1.9928085 3.7379708,-1.996628 3.7262056,-2.000297 3.717447,-2.0037329 3.7119804,-2.0068522 3.7100935,-2.0095749 3.7088741,-2.0107658 3.7054079,-2.0124072 3.6928945,-2.0167534 3.6748718,-2.0220271 3.6536569,-2.0276393 3.6109214,-2.0375315 3.5940356,-2.040637 3.5832274,-2.0417321 3.5741269,-2.0382267 3.5638658,-2.0299768 3.5505647,-2.0208608 3.5334172,-2.0161081 3.5152661,-2.0126559 3.4988129,-2.0074992 3.4848109,-2.0045679 3.4780831,-2.0058781 3.4711385,-2.0092911 3.4636779,-2.014995 3.4554026,-2.0231811 3.4460134,-2.0340367 3.4352118,-2.0477517 3.4199036,-2.0675418 3.4071857,-2.0830208 3.3960315,-2.0949659 3.3854114,-2.1041506 3.3616587,-2.1173421 3.3464684,-2.1228996 3.327699,-2.1287997 3.3031799,-2.1365752 3.2768975,-2.1455277 3.2235288,-2.165218 3.1986842,-2.1750889 3.1765632,-2.1843971 3.1582854,-2.1927084 3.144972,-2.1995883 3.1244008,-2.2114307 3.1244008,-2.2494398 3.1265142,-2.2817004 3.1329754,-2.3134532 3.1439603,-2.3453437 3.1596455,-2.3780174 3.1754362,-2.4070601 3.1184933,-2.502113 3.1088792,-2.5181433 3.100366,-2.5322737 3.0862699,-2.5553349 3.0754494,-2.5722939 3.0671505,-2.584147 3.0606189,-2.5918914 3.0551007,-2.5965243 3.0440856,-2.6004423 3.0288895,-2.6012774 3.018635,-2.5967938 3.0123611,-2.5933162 3.002172,-2.5901616 2.9884415,-2.5873408 2.9715418,-2.5848647 2.9518482,-2.5827452 2.9297329,-2.580992 2.879733,-2.5786325 2.8245306,-2.5778743 2.7671142,-2.5788055 2.7104715,-2.5815159 2.657591,-2.5860931 2.6362118,-2.5883909 2.6184803,-2.5901301 2.6041283,-2.591321 2.5928874,-2.5919744 2.5844903,-2.5921016 2.5786695,-2.5917119 2.5751551,-2.5908167 2.5736804,-2.5894268 2.570723,-2.5863561 2.566304,-2.58705 2.5609232,-2.5886183 2.5503097,-2.5903943 2.5359977,-2.5921593 2.5195233,-2.5936961 2.487618,-2.5971487 2.475794,-2.5990879 2.4689361,-2.6008553 2.4647134,-2.6023929 2.4625158,-2.6025267 2.4622058,-2.6011911 2.4636428,-2.5983179 2.464985,-2.5953895 2.4642988,-2.5939386 2.4613643,-2.593874 2.4559655,-2.5951053 2.4488344,-2.5967353 2.438027,-2.5987984 2.4112564,-2.6031662 2.3850607,-2.6081131 2.3748765,-2.6108035 2.3685053,-2.6131995 2.3634353,-2.6153579 2.3593893,-2.615555 2.3557661,-2.6136571 2.3519662,-2.6095313 2.3477018,-2.6007887 2.3470713,-2.5922006 2.3470704,-2.5870206 2.3441719,-2.5867237 2.3412586,-2.586298 2.3412807,-2.5806796 2.3444279,-2.5746707 2.3492403,-2.5729241 2.3518166,-2.5726109 2.3531415,-2.5701573 2.353256,-2.5653604 2.3521993,-2.5580196 2.351231,-2.5493677 2.3522214,-2.5421287 2.3555297,-2.5351179 2.3615116,-2.5271506 2.3694328,-2.5159841 2.371219,-2.5119639 2.3711339,-2.5097466 2.3697198,-2.5041115 2.3719322,-2.4964975 2.3764141,-2.4898032 2.3818105,-2.4869279 2.3865173,-2.4842249 2.3868608,-2.4806323 2.3859325,-2.475355 2.3854181,-2.4662312 2.3882602,-2.4605478 2.3919562,-2.4556958 2.393493,-2.4485717 2.3961249,-2.4390062 2.4024511,-2.4282851 2.4081264,-2.4182535 2.4091929,-2.4103447 2.410728,-2.4025274 2.4175303,-2.3927146 2.4218119,-2.3876487 2.424007,-2.3837748 2.424124,-2.3810701 2.4221717,-2.3795104 2.4199397,-2.3769611 2.4198743,-2.3710405 2.4220695,-2.3610567 2.4266169,-2.3463162 2.4348161,-2.3177388 2.4379992,-2.3039666 2.4399867,-2.2928767 2.4419365,-2.2810126 2.4443378,-2.2746009 2.4481392,-2.2723133 2.454288,-2.2728196 2.4598512,-2.2734509 2.4631865,-2.2725337 2.4647036,-2.2697554 2.4648091,-2.2648064 2.4622304,-2.2577196 2.456601,-2.2558213 2.4517166,-2.2550512 2.4504105,-2.2497972 2.4527635,-2.2388226 2.4553365,-2.2308037 2.4588534,-2.2208915 2.4623408,-2.209593 2.4655362,-2.1956908 2.470899,-2.1613535 2.4746334,-2.1204345 2.4764311,-2.0754907 2.4764311,-2.0182231 2.4693017,-2.0183843 2.4645008,-2.0186067 2.4615082,-2.0175991 2.4601522,-2.0152264 2.4602618,-2.0113546 2.4597817,-2.0053727 2.4566312,-2.0028839 2.4487952,-1.9996648 2.4408495,-1.991652 2.4346909,-1.9813133 2.4322169,-1.9711169 2.4317703,-1.9653288 2.4302949,-1.9617506 2.4275828,-1.9601271 2.423428,-1.9602007 2.4186581,-1.9595063 2.4126247,-1.956261 2.3984591,-1.9432609 2.3885784,-1.9344442 2.3737012,-1.9241423 2.3353479,-1.9023549 2.315067,-1.8925061 2.2961815,-1.8844451 2.2802894,-1.8789907 2.2689872,-1.8769599 2.2538025,-1.8748596 2.2361782,-1.8699115 2.2220584,-1.865854 2.2077112,-1.8638649 2.1928963,-1.8639958 2.177373,-1.8662973 2.160901,-1.8708226 2.1432391,-1.8776216 2.124145,-1.8867458 2.1033808,-1.8982467 2.0794514,-1.910613 2.0699706,-1.9143744 2.0638742,-1.9157566 2.0605953,-1.9166137 2.0549586,-1.9190878 2.047201,-1.9230324 2.0375583,-1.9283003 2.0135651,-1.9422238 1.98487,-1.9596846 1.9209384,-2.0005366 1.8894855,-2.0215838 1.8608959,-2.0414835 1.8395583,-2.057275 1.8155619,-2.0759307 1.791846,-2.0951188 1.7713476,-2.1125101 1.7512926,-2.1295906 1.7287797,-2.1479339 1.7065647,-2.165339 1.687401,-2.1796036 1.6569581,-2.2036716 1.6269086,-2.2309182 1.6141277,-2.243709 1.6039599,-2.2548639 1.5972443,-2.2635743 1.5948193,-2.2690295 1.5909091,-2.274046 1.5815084,-2.2801947 1.5560963,-2.2938602 1.5512986,-2.2975328 1.5428312,-2.3051002 1.5312296,-2.316016 1.5170297,-2.329737 1.5007671,-2.3457171 1.4829759,-2.3634122 1.4449554,-2.4017676 1.407253,-2.4404437 1.3898593,-2.4585399 1.374152,-2.4750818 1.3606669,-2.4895247 1.3499389,-2.5013233 1.3425036,-2.5099335 1.3388976,-2.5148097 1.3330465,-2.522467 1.3271275,-2.5256518 1.3223307,-2.5277317 1.3142992,-2.5336903 1.3034689,-2.5431061 1.2902717,-2.5555582 1.2751426,-2.5706251 1.2585136,-2.5878855 1.2224945,-2.6273017 1.2120461,-2.638956 1.1978879,-2.6545021 1.1806471,-2.673265 1.160947,-2.6945702 1.116673,-2.7421112 1.0700681,-2.7917283 1.0248773,-2.8396394 1.0037941,-2.8620058 0.9844547,-2.882532 0.967411,-2.9006323 0.9532135,-2.9157209 0.9424159,-2.9272128 0.9355679,-2.9345218 0.9128343,-2.9588715 0.8732614,-2.957843 0.8551815,-2.957821 0.8403444,-2.958773 0.8288022,-2.960695 0.8206042,-2.9635808 0.8066697,-2.9736194 0.790697,-2.9892326 0.7757213,-3.0071343 0.7647778,-3.024036 0.7607817,-3.032737 0.7596096,-3.0397944 0.7613615,-3.0478178 0.7661379,-3.0594185 0.77491,-3.0758234 0.7794181,-3.0823329 0.7832589,-3.0865269 0.7889423,-3.092571 0.7913063,-3.0977731 0.7905494,-3.1001163 0.7878729,-3.1043014 0.7826684,-3.1110439 0.7743277,-3.1210592 0.7622424,-3.1350629 0.7458043,-3.1537693 0.7244043,-3.1778953 0.711654,-3.1922138 0.6974349,-3.2081558 0.6888022,-3.2180509 0.6783191,-3.2304331 0.6534165,-3.2606744 0.5991497,-3.3291669 0.5713714,-3.3641886 0.5412475,-3.4005031 0.5124097,-3.4338228 0.4996079,-3.4480195 0.4884889,-3.459859 0.4710391,-3.4782612 0.4572416,-3.4937587 0.4466882,-3.5070716 0.4389691,-3.518921 0.4304023,-3.5411124 0.4282725,-3.5660988 0.428661,-3.5787877 0.4307466,-3.5862754 0.4359106,-3.5908624 0.445535,-3.5948483 0.4622531,-3.6030614 0.4782078,-3.6140418 0.4967805,-3.6277383 0.5158983,-3.6387915 0.5323547,-3.6455929 0.5385829,-3.6468962 0.5429434,-3.6465331 0.5509683,-3.6467502 0.5593924,-3.6514436 0.5655707,-3.6549637 0.5757037,-3.658279 0.5889492,-3.6611665 0.6044683,-3.6634029 0.6348348,-3.6671541 0.6477163,-3.6689735 0.6567755,-3.6704469 0.6665846,-3.670884 0.6769115,-3.6686116 0.6878028,-3.6635927 0.6993062,-3.6557906 0.7114683,-3.6451684 0.7243372,-3.6316895 0.7379601,-3.615316 0.7523841,-3.5960122 0.7795609,-3.5596503 0.7906864,-3.5459063 0.7981663,-3.5376728 0.8069956,-3.526881 0.8106679,-3.5174145 0.8121875,-3.5130298 0.8163251,-3.5073922 0.8299264,-3.495266 0.8435566,-3.4833067 0.8477266,-3.477851 0.8492879,-3.4736881 0.8516442,-3.4671945 0.8571657,-3.4627514 0.8624058,-3.4576954 0.8619878,-3.4480093 0.861372,-3.439734 0.8633799,-3.4339643 0.8669761,-3.4321094 0.8711243,-3.4355776 0.8749421,-3.4396563 0.8787485,-3.4400199 0.8821722,-3.4368146 0.8848417,-3.4301874 0.8887487,-3.4231729 0.8950872,-3.4227746 0.9004181,-3.4235295 0.9026362,-3.4212775 0.904164,-3.417806 0.9083237,-3.4116024 0.9219977,-3.3945125 0.9356717,-3.3759681 0.9398315,-3.3681909 0.9413601,-3.3627974 0.94251,-3.3585261 0.945613,-3.3529388 0.9555845,-3.3401415 0.9670937,-3.3290544 0.9721195,-3.325605 0.9759602,-3.3243259 0.9788727,-3.3215418 0.9800831,-3.3148492 0.9814572,-3.3100188 0.9854615,-3.304694 0.9919202,-3.2990589 1.0006551,-3.2932994 1.0213367,-3.2786292 1.041431,-3.2599604 1.0585729,-3.2397601 1.0703977,-3.2204972 1.0793125,-3.2013765 1.1712808,-3.1739822 1.2158304,-3.1606938 1.2568419,-3.1484208 1.294415,-3.1371321 1.3286471,-3.126797 1.3596397,-3.1173837 1.3874891,-3.1088614 1.412296,-3.1011988 1.4341594,-3.0943646 1.4531775,-3.0883283 1.4694491,-3.0830575 1.4830732,-3.0785224 1.4941497,-3.0746907 1.5027766,-3.0715324 1.5090538,-3.069015 1.5130794,-3.067109 1.5149523,-3.0657816 1.5195177,-3.0631848 1.5283695,-3.0606326 1.5538308,-3.0568357 1.5680634,-3.0547656 1.5871387,-3.0507703 1.6323851,-3.0391017 1.6548398,-3.0324785 1.6747068,-3.0260292 1.690127,-3.0202787 1.6992422,-3.0157514 1.7038289,-3.0106965 1.7075616,-3.0036464 1.7113877,-2.9976637 1.7161968,-2.9951753 1.7192703,-2.9973083 1.7189211,-3.0024364 1.7187845,-3.0076916 1.7229434,-3.0096971 1.7289466,-3.009098 1.7383268,-3.0074062 1.7504428,-3.0047812 1.7646509,-3.001383 1.8295811,-2.9832356 1.8458069,-2.9783455 1.859211,-2.9747362 1.869944,-2.9723983 1.8781563,-2.9713224 1.8839959,-2.9714983 1.8876133,-2.9729169 1.8891591,-2.9755692 1.8887821,-2.9794443 1.8868233,-2.9861709 1.8832876,-2.9982239 1.8734944,-3.0314791 1.8704224,-3.0422554 1.8666095,-3.0562243 1.8622069,-3.0727989 1.8573667,-3.0913949 1.8366418,-3.1742721 1.826595,-3.2154975 1.8169809,-3.2543915 1.8126773,-3.2715967 1.8088905,-3.2865769 1.8057564,-3.2987861 1.8034124,-3.3076764 1.7988339,-3.3270551 1.7948403,-3.3490731 1.7914412,-3.3736064 1.7886481,-3.4005317 1.7864718,-3.4297249 1.7849243,-3.4610621 1.7837556,-3.5296752 1.7840451,-3.5694018 1.7848442,-3.6016755 1.7863008,-3.6274696 1.7885631,-3.6477558 1.7917781,-3.6635072 1.7960941,-3.6756964 1.8016581,-3.6852954 1.808619,-3.693277 1.8165924,-3.7013462 1.826245,-3.7115904 1.8457169,-3.7333434 1.852951,-3.7414032 1.8589346,-3.7472931 1.8903369,-3.7654049 1.919225,-3.7787379 1.9453659,-3.7868496 1.9684749,-3.7891989 1.9883885,-3.7854743 2.0052122,-3.775877 2.0192052,-3.7609005 2.0305974,-3.7409795 2.0368745,-3.730094 2.0414309,-3.7216388 2.0460617,-3.7088579 2.0458442,-3.6963101 2.0443401,-3.6881473 2.0421318,-3.6776703 2.0406376,-3.6690553 2.0393151,-3.6582945 2.0372164,-3.6308704 2.0358947,-3.5964612 2.0354105,-3.556131 2.035305,-3.4660544 2.0518007,-3.4302798 2.0593947,-3.4124493 2.0645375,-3.3969698 2.0684625,-3.369439 2.0700033,-3.3463455 2.074298,-3.3239946 2.0813162,-3.3024968 2.0910292,-3.2819645 2.0977309,-3.2674362 2.098741,-3.2630164 2.0978904,-3.2613929 2.093743,-3.2586305 2.093707,-3.2520818 2.0971584,-3.2443566 2.1034724,-3.2380635 2.1125074,-3.2287258 2.1212448,-3.2134336 2.1289385,-3.194528 2.1348428,-3.1743503" transform="matrix(1,0,0,-1,1.2853204,2.3851551)" stroke="rgb(100,100,100)" stroke-width="0.0010cm" stroke-linecap="round" stroke-linejoin="round" fill="none" /><path d="M3.7030116,-0.2905296 L3.7127737,-0.312272 3.7204486,-0.3328154 3.7262809,-0.35391 3.7305167,-0.3773085 3.7334005,-0.4047621 3.7351785,-0.4380226 3.735729,-0.4573776 3.7360954,-0.4788411 3.7363064,-0.5026322 3.7363955,-0.5289694 3.7363775,-0.555758 3.7362254,-0.5799008 3.735904,-0.6016326 3.7353789,-0.6211871 3.7335788,-0.6547085 3.7305469,-0.6823445 3.7260061,-0.7059753 3.7196774,-0.7274813 3.7112843,-0.7487419 3.7005481,-0.7716391 3.6865355,-0.7962302 3.6697985,-0.8187446 3.6504149,-0.8391268 3.6284607,-0.8573196 3.6040128,-0.8732674 3.5771481,-0.8869128 3.5479435,-0.8982002 3.5164757,-0.9070717 3.5032524,-0.909648 3.4858177,-0.911687 3.4744656,-0.912531 3.4607965,-0.913272 3.4443867,-0.9139214 3.4248158,-0.9144874 3.4016618,-0.914983 3.3745026,-0.9154173 3.3429172,-0.9158009 3.3064833,-0.9161452 3.2647791,-0.9164593 3.2173825,-0.9167545 3.1638731,-0.9170408 3.1038272,-0.9173295 2.7274833,-0.9190667 2.7274833,-1.0800758 2.7274678,-1.1035463 2.7274179,-1.1247873 2.7271979,-1.1610249 2.7267873,-1.1896816 2.7261502,-1.2116497 2.7252513,-1.2278215 2.7240539,-1.2390885 2.7225221,-1.2463447 2.7206205,-1.2504807 2.7142468,-1.2556545 2.7083802,-1.2573713 2.6994163,-1.258639 2.6863712,-1.2595542 2.6682627,-1.2602142 2.6441068,-1.2607172 2.6129204,-1.2611613 2.5868507,-1.2614132 2.5648229,-1.2614435 2.5465229,-1.2612374 2.5316393,-1.260781 2.5198562,-1.2600604 2.510862,-1.2590626 2.5043419,-1.2577728 2.4999826,-1.256178 2.4878814,-1.2499098 2.4866505,-0.7065135 2.4854187,-0.1631171 2.497475,-0.1510609 2.5095305,-0.1390054 2.9996914,-0.1404547 3.4898531,-0.1419039 3.5285762,-0.1530875 3.5592105,-0.1632717 3.587239,-0.1753893 3.6127027,-0.1894723 3.6356441,-0.205555 3.6561032,-0.2236693 3.6741234,-0.2438478 3.6897456,-0.2661235 3.7030116,-0.2905296z" transform="matrix(1,0,0,-1,1.2853204,2.3851551)" stroke="rgb(100,100,100)" stroke-width="0.0010cm" stroke-linecap="round" stroke-linejoin="round" fill="none" /><path d="M1.621226,-0.6451394 L1.6552136,-0.5667167 1.6875139,-0.4923286 1.7173761,-0.4236902 1.7311598,-0.3920638 1.7440527,-0.3625181 1.7559618,-0.3352674 1.7667937,-0.3105267 1.7764536,-0.2885111 1.7848491,-0.2694334 1.7918861,-0.2535094 1.7974705,-0.2409534 1.8015092,-0.2319797 1.8039088,-0.2268025 1.8208707,-0.1975611 1.8405676,-0.1742819 1.8627721,-0.1571835 1.8872592,-0.146484 1.9063149,-0.1425345 1.9189036,-0.1412505 1.9348995,-0.1403761 1.9553251,-0.1398715 1.9812035,-0.1396981 2.0135586,-0.1398167 2.0534144,-0.1401905 2.0769144,-0.1404588 2.0976638,-0.1407205 2.1158664,-0.140992 2.1317234,-0.1412889 2.1572116,-0.1420193 2.1757471,-0.1430383 2.1889484,-0.1444696 2.1984333,-0.1464382 2.2127289,-0.1524889 2.2294765,-0.1633085 2.2425584,-0.1763479 2.2529111,-0.1927847 2.2614709,-0.2137951 2.2640268,-0.2240741 2.2650925,-0.2314129 2.2660322,-0.2409812 2.2668558,-0.2533524 2.2675739,-0.2690997 2.2681979,-0.2887958 2.2687386,-0.3130146 2.2692072,-0.3423281 2.2696129,-0.3773102 2.269967,-0.4185335 2.2702819,-0.4665713 2.2705673,-0.5219962 2.2707015,-0.5526583 2.2708331,-0.5853822 2.2709632,-0.6202392 2.2710916,-0.6573012 2.2712208,-0.6966401 2.2713525,-0.7383271 2.272904,-1.238112 2.2608117,-1.2502042 2.25235,-1.2571774 2.2467312,-1.259326 2.2385688,-1.2607695 2.2266491,-1.2616479 2.2097592,-1.262101 2.1866853,-1.2622711 2.156213,-1.2622965 2.1275465,-1.2621787 2.1042641,-1.2617772 2.0856959,-1.2610149 2.0711737,-1.2598159 2.0600261,-1.2581049 2.0515848,-1.255805 2.0401411,-1.2491369 2.0398819,-1.2466522 2.0396054,-1.2397935 2.0393134,-1.2287874 2.03901,-1.2138571 2.0386968,-1.1952284 2.0383753,-1.1731261 2.038049,-1.1477753 2.0377202,-1.1194 2.0373923,-1.0882259 2.0370659,-1.054478 2.0367445,-1.0183803 2.0364312,-0.9801578 2.0358358,-0.8982403 2.0353001,-0.8105225 2.03288,-0.3740747 2.0183587,-0.3726516 2.0056694,-0.373485 1.9955539,-0.3774917 1.9938413,-0.3800631 1.9904716,-0.3863575 1.9855349,-0.3961785 1.979122,-0.4093332 1.9713228,-0.4256269 1.9622272,-0.4448657 1.9519244,-0.4668551 1.9405061,-0.4914003 1.9280621,-0.5183076 1.9146817,-0.5473822 1.8854738,-0.6112581 1.8536021,-0.6814718 1.8197903,-0.75647 1.7857659,-0.8319827 1.7532882,-0.903671 1.7231201,-0.9698763 1.709141,-1.0004051 1.6960247,-1.0289415 1.6838686,-1.0552787 1.6727668,-1.0792097 1.6628149,-1.1005259 1.6541087,-1.1190213 1.6467429,-1.1344881 1.6408141,-1.1467195 1.6364172,-1.1555083 1.6336471,-1.160647 1.6144761,-1.1888735 1.6039828,-1.2021337 1.5945936,-1.2125534 1.578906,-1.2267362 1.5624373,-1.2381758 1.5443222,-1.247089 1.5236962,-1.2536884 1.4996932,-1.2581916 1.4714504,-1.2608121 1.4381008,-1.2617665 1.3987815,-1.2612684 1.3745487,-1.2605528 1.3554113,-1.2597734 1.3403558,-1.2587821 1.3283691,-1.2574302 1.3095473,-1.2530496 1.2908368,-1.2454434 1.2654402,-1.2308591 1.2419836,-1.2108121 1.2203639,-1.1851963 1.2004797,-1.1539086 1.1979411,-1.1489882 1.1937887,-1.1404611 1.1881159,-1.1285307 1.1810168,-1.1134017 1.1725829,-1.095276 1.1629099,-1.0743597 1.1520886,-1.0508548 1.1402139,-1.024965 1.127379,-0.9968956 1.1136771,-0.9668493 1.0840439,-0.901641 1.0520626,-0.830971 1.0184782,-0.75647 0.9850795,-0.6823985 0.9536306,-0.6129626 0.9248406,-0.5497057 0.9116639,-0.5208765 0.8994178,-0.4941705 0.8881909,-0.4697815 0.8780722,-0.4479009 0.86915,-0.4287242 0.8615127,-0.4124419 0.8552494,-0.399248 0.8504485,-0.3893354 0.8471982,-0.3828971 0.8455878,-0.3801253 0.8371564,-0.3744034 0.8262234,-0.3719384 0.815275,-0.3729018 0.8067948,-0.3774631 0.8059995,-0.3794808 0.8052732,-0.3839963 0.8046136,-0.3911919 0.8040186,-0.4012518 0.8034845,-0.4143599 0.8030101,-0.4306985 0.8025922,-0.4504526 0.8022291,-0.4738046 0.8019179,-0.5009376 0.8016561,-0.5320372 0.801441,-0.5672843 0.8012709,-0.6068645 0.8011425,-0.6509602 0.8010542,-0.6997554 0.8010031,-0.7534341 0.8009863,-0.8121779 0.8009728,-0.8767564 0.8009295,-0.9347715 0.8008501,-0.9865674 0.8007295,-1.0324886 0.800563,-1.0728785 0.8003443,-1.1080806 0.8000686,-1.1384401 0.7997305,-1.1642997 0.7993244,-1.1860044 0.7988443,-1.2038978 0.7982857,-1.2183235 0.7976432,-1.2296257 0.7969112,-1.2381488 0.7960844,-1.2442362 0.7941243,-1.2504807 0.7878414,-1.2556415 0.7821605,-1.257359 0.7735499,-1.2586292 0.7610818,-1.2595484 0.74383,-1.2602134 0.7208669,-1.2607205 0.6912648,-1.2611654 0.6665192,-1.2614173 0.6455608,-1.2614459 0.6281008,-1.2612374 0.6138502,-1.2607793 0.6025206,-1.260058 0.5938221,-1.2590602 0.5874676,-1.257772 0.5831668,-1.2561813 0.5710655,-1.2499073 0.5710655,-0.7366202 0.5710655,-0.2233323 0.5856,-0.1949144 0.5938953,-0.1800913 0.6019489,-0.1695571 0.6114726,-0.161501 0.6241766,-0.1541148 0.6403059,-0.1469609 0.6498436,-0.1447027 0.6628735,-0.1431103 0.6812778,-0.1420242 0.7069398,-0.1412815 0.7230805,-0.1409896 0.7417415,-0.1407237 0.763158,-0.1404637 0.7875658,-0.1401905 0.8273681,-0.1398184 0.8597133,-0.1396998 0.8856097,-0.1398732 0.906068,-0.1403753 0.9220959,-0.1412447 0.9347042,-0.1425182 0.9536985,-0.1464341 0.9761123,-0.1557097 0.9970851,-0.1697566 1.0156713,-0.1878071 1.0309254,-0.2090939 1.0330061,-0.2131849 1.0367978,-0.2212361 1.0422039,-0.2330315 1.0491305,-0.2483576 1.0574826,-0.266997 1.0671638,-0.288736 1.0780808,-0.313359 1.0901379,-0.3406498 1.1032402,-0.3703926 1.1172921,-0.4023739 1.1478667,-0.472186 1.181101,-0.5483636 1.2162353,-0.6291835 1.2512607,-0.7097531 1.2841818,-0.7852126 1.2996216,-0.820503 1.3142591,-0.8538895 1.328001,-0.8851609 1.3407558,-0.9141103 1.3524309,-0.9405277 1.3629341,-0.9642043 1.3721736,-0.9849301 1.3800554,-1.0024972 1.3864896,-1.0166963 1.3913822,-1.0273172 1.3946414,-1.0341522 1.3961757,-1.0369918 1.4003052,-1.0400294 1.4065447,-1.0422892 1.4225162,-1.0443977 1.4384148,-1.0431619 1.4445652,-1.0412407 1.4485696,-1.0384256 1.4499469,-1.0358002 1.4529934,-1.0293063 1.4576193,-1.0191458 1.4637362,-1.0055209 1.4712557,-0.9886318 1.4800896,-0.9686814 1.4901486,-0.9458708 1.5013445,-0.9204014 1.5135897,-0.8924751 1.5267943,-0.8622948 1.5557299,-0.7959725 1.5874429,-0.7230501 1.621226,-0.6451394z" transform="matrix(1,0,0,-1,1.2853204,2.3851551)" stroke="rgb(100,100,100)" stroke-width="0.0010cm" stroke-linecap="round" stroke-linejoin="round" fill="none" /><path d="M0.3400677,-1.2547655 L0.3307766,-1.2585621 0.3232571,-1.2598568 0.3130034,-1.2608022 0.2994013,-1.261441 0.2818371,-1.2618123 0.2596972,-1.2619579 0.2323675,-1.2619186 0.194154,-1.2615653 0.1617695,-1.2608857 0.1488315,-1.2604538 0.1386335,-1.259977 0.1316022,-1.2594675 0.1281647,-1.2589367 0.1216613,-1.2559907 0.1190425,-1.252985 0.116806,-1.2477956 0.1149208,-1.2395498 0.1133579,-1.2273757 0.1120861,-1.2104008 0.111076,-1.1877546 0.1102978,-1.1585631 0.1097208,-1.1219559 0.1094983,-1.1005987 0.1093151,-1.0770603 0.1091667,-1.0512318 0.1090505,-1.0230037 0.1089618,-0.992268 0.1088972,-0.9589151 0.1088526,-0.9228362 0.1088248,-0.8839218 0.1088097,-0.842063 0.1088035,-0.7971519 0.1088023,-0.7490781 0.1088031,-0.6977336 0.1088031,-0.1543831 0.1195615,-0.146848 0.1245959,-0.1448712 0.133321,-0.1431594 0.1452006,-0.1417126 0.1597003,-0.1405307 0.1944174,-0.1389588 0.2331907,-0.1384443 0.2717396,-0.1389841 0.3057816,-0.140579 0.3197746,-0.1417706 0.3310351,-0.1432256 0.3390285,-0.1449432 0.3432189,-0.146924 0.3455053,-0.1525788 0.3464553,-0.1585714 0.3472866,-0.1674208 0.3480076,-0.1796897 0.3486251,-0.1959392 0.3491473,-0.2167312 0.3495816,-0.2426259 0.3499361,-0.2741861 0.3502183,-0.3119718 0.3504358,-0.356546 0.350597,-0.4084695 0.3507082,-0.4683027 0.3507479,-0.5013612 0.3507785,-0.5366083 0.3508006,-0.5741136 0.3508149,-0.6139473 0.3508227,-0.656179 0.3508256,-0.70088 0.3508256,-1.2472304 0.3400677,-1.2547655z" transform="matrix(1,0,0,-1,1.2853204,2.3851551)" stroke="rgb(100,100,100)" stroke-width="0.0010cm" stroke-linecap="round" stroke-linejoin="round" fill="none" /><path d="M-0.3219965,-0.9162041 L-0.3223261,-0.8914839 -0.3234224,-0.8709708 -0.3254471,-0.8541266 -0.3285616,-0.8404166 -0.3329286,-0.8293034 -0.3387093,-0.8202495 -0.355158,-0.8061771 -0.3728212,-0.7951931 -0.7261735,-0.7924778 -0.7827732,-0.792032 -0.8331575,-0.7916067 -0.8777227,-0.7911888 -0.9168669,-0.7907684 -0.9509866,-0.7903333 -0.9804795,-0.7898704 -1.005742,-0.789369 -1.0271724,-0.7888178 -1.0451672,-0.7882044 -1.0601241,-0.7875173 -1.0724397,-0.7867453 -1.0825114,-0.7858751 -1.0975128,-0.7837968 -1.1083051,-0.7811886 -1.1406647,-0.7695217 -1.1699274,-0.7547476 -1.196045,-0.7369188 -1.2189692,-0.7160859 -1.2386501,-0.6923005 -1.2550395,-0.6656132 -1.2680874,-0.6360757 -1.2777465,-0.6037394 -1.2793405,-0.5948025 -1.2807571,-0.582572 -1.2819921,-0.5675166 -1.2830422,-0.5501024 -1.2845729,-0.510065 -1.2853204,-0.4661959 -1.2852558,-0.4222311 -1.2843492,-0.3819058 -1.2835714,-0.3642757 -1.2825724,-0.3489569 -1.2813484,-0.3364148 -1.2798959,-0.3271189 -1.273249,-0.3027119 -1.2637641,-0.2789706 -1.2517299,-0.2562779 -1.2374351,-0.2350181 -1.2211668,-0.2155739 -1.203214,-0.1983307 -1.1838644,-0.1836711 -1.1634065,-0.1719796 -1.1420052,-0.1616229 -1.121935,-0.1539537 -1.1100472,-0.1509938 -1.095671,-0.1485451 -1.0778654,-0.1465552 -1.05569,-0.1449701 -1.0282041,-0.1437368 -0.9944681,-0.142802 -0.9535404,-0.1421117 -0.9300858,-0.1418418 -0.9044811,-0.1416128 -0.8766083,-0.1414189 -0.8463494,-0.1412529 -0.8135879,-0.1411073 -0.7782054,-0.1409765 -0.7400847,-0.1408546 -0.699108,-0.1407327 -0.6551579,-0.140606 -0.6081166,-0.1404661 -0.5683765,-0.1403475 -0.5309142,-0.1402412 -0.4956618,-0.1401463 -0.4625518,-0.1400654 -0.4024839,-0.1399484 -0.3501628,-0.1398969 -0.3050428,-0.139919 -0.2665777,-0.140022 -0.2342206,-0.1402134 -0.207425,-0.1405013 -0.1856446,-0.140893 -0.1683327,-0.141396 -0.1549433,-0.1420184 -0.1449292,-0.1427676 -0.137745,-0.1436517 -0.1328435,-0.1446773 -0.1277027,-0.1471858 -0.1228437,-0.1542219 -0.1212579,-0.1601401 -0.1201321,-0.1688014 -0.1193894,-0.1810646 -0.1189543,-0.1977885 -0.1187491,-0.2198302 -0.1186979,-0.2480484 -0.1187728,-0.2729274 -0.1190169,-0.2935231 -0.1194565,-0.310247 -0.1201202,-0.3235088 -0.1210354,-0.3337199 -0.1222299,-0.341291 -0.1255669,-0.3501576 -0.1290894,-0.3531952 -0.1377826,-0.355531 -0.1455414,-0.3564765 -0.1563598,-0.3572943 -0.1708268,-0.358001 -0.189532,-0.3586119 -0.2130638,-0.3591436 -0.2420117,-0.3596114 -0.2769643,-0.3600309 -0.3185111,-0.3604194 -0.3672409,-0.3607924 -0.4237421,-0.3611645 -0.4550916,-0.3613559 -0.4886044,-0.361553 -0.5243553,-0.3617583 -0.5624171,-0.3619734 -0.6188713,-0.3623087 -0.6709085,-0.3626571 -0.7186462,-0.3630186 -0.7622041,-0.3633973 -0.8017009,-0.363794 -0.8372547,-0.3642111 -0.8689853,-0.3646511 -0.8970102,-0.3651165 -0.9214491,-0.3656088 -0.9424202,-0.3661315 -0.9600425,-0.3666843 -0.9744355,-0.3672716 -0.9857164,-0.3678948 -0.9940047,-0.3685556 -0.9994195,-0.3692566 -1.0020788,-0.37 -1.012449,-0.377082 -1.0211455,-0.3854644 -1.0282557,-0.3953737 -1.0338671,-0.4070358 -1.0380673,-0.4206763 -1.0409442,-0.4365202 -1.0425848,-0.4547947 -1.0430776,-0.4757241 -1.041733,-0.5085209 -1.0378505,-0.5349996 -1.0314012,-0.555291 -1.0223559,-0.5695261 -1.0142672,-0.5778054 -1.0043925,-0.5840008 -0.9974022,-0.5864111 -0.9883054,-0.5884149 -0.9765493,-0.590049 -0.9615797,-0.5913527 -0.9428447,-0.5923628 -0.9197904,-0.5931169 -0.8918629,-0.5936542 -0.8585096,-0.5940124 -0.8191772,-0.5942292 -0.7733125,-0.5943429 -0.7203621,-0.5943903 -0.6597727,-0.5944107 -0.5932411,-0.5945252 -0.5305225,-0.5948131 -0.4728807,-0.5952572 -0.4215796,-0.5958404 -0.398702,-0.596179 -0.377883,-0.5965454 -0.3592809,-0.5969388 -0.3430543,-0.5973559 -0.3293602,-0.5977959 -0.3183569,-0.5982548 -0.3102027,-0.5987324 -0.305055,-0.5992248 -0.2776497,-0.6040608 -0.2515841,-0.6107061 -0.2270294,-0.6190778 -0.204158,-0.6290902 -0.1831419,-0.6406599 -0.1641533,-0.6537017 -0.1473644,-0.6681306 -0.1329461,-0.6838633 -0.1161024,-0.7088534 -0.101698,-0.7386297 -0.0901648,-0.7721413 -0.0819337,-0.8083339 -0.0800824,-0.8212677 -0.0785534,-0.8365456 -0.0764335,-0.8726441 -0.0755195,-0.9136515 -0.0757555,-0.9565875 -0.077087,-0.9984732 -0.0794584,-1.0363302 -0.0810173,-1.0528161 -0.0828158,-1.0671787 -0.0848465,-1.0790436 -0.0871026,-1.0880403 -0.0981125,-1.117909 -0.1110013,-1.1437105 -0.1263148,-1.1663828 -0.1445996,-1.1868648 -0.1681172,-1.2073059 -0.1938397,-1.2239619 -0.2231674,-1.2376008 -0.2574997,-1.2489946 -0.2709677,-1.2525172 -0.2870704,-1.2551818 -0.2979964,-1.2562361 -0.3118442,-1.2571284 -0.3293684,-1.2578759 -0.3513234,-1.258495 -0.3784641,-1.2590046 -0.4115435,-1.2594209 -0.4513175,-1.2597619 -0.4985395,-1.2600449 -0.5251789,-1.2601708 -0.553964,-1.2602878 -0.584988,-1.2603982 -0.6183458,-1.2605062 -0.654131,-1.2606125 -0.692439,-1.2607188 -0.733363,-1.2608284 -0.7769982,-1.2609429 -0.8413179,-1.2610934 -0.9003982,-1.2611948 -0.9544012,-1.2612447 -1.00349,-1.2612431 -1.0478262,-1.2611866 -1.0875724,-1.2610754 -1.122891,-1.2609078 -1.1539445,-1.260682 -1.1808951,-1.2603966 -1.2039047,-1.2600506 -1.2231366,-1.2596417 -1.2387523,-1.259169 -1.2509145,-1.2586316 -1.2597856,-1.2580264 -1.2655279,-1.2573541 -1.2683037,-1.2566115 -1.2761856,-1.2511211 -1.2815406,-1.2457681 -1.2822567,-1.2428794 -1.2829273,-1.2366398 -1.2835383,-1.2274395 -1.284074,-1.2156687 -1.2848616,-1.1859758 -1.2851712,-1.1506812 -1.2851151,-1.1266128 -1.2848865,-1.1066649 -1.284458,-1.0904432 -1.2838029,-1.0775535 -1.2828942,-1.0676032 -1.281705,-1.060199 -1.2783759,-1.0514518 -1.2748062,-1.0484126 -1.2658284,-1.0460751 -1.2577695,-1.0451297 -1.246509,-1.0443118 -1.2314299,-1.043606 -1.2119162,-1.042995 -1.187351,-1.0424642 -1.1571178,-1.0419972 -1.1206002,-1.0415768 -1.0771809,-1.0411892 -1.0262445,-1.040817 -0.9977645,-1.0406322 -0.9671744,-1.0404449 -0.934396,-1.0402535 -0.899353,-1.0400564 -0.861968,-1.0398511 -0.8221641,-1.039636 -0.3728212,-1.0372151 -0.355158,-1.0262311 -0.3387093,-1.0121595 -0.3329286,-1.0031057 -0.3285616,-0.9919924 -0.3254471,-0.9782816 -0.3234224,-0.9614383 -0.3223261,-0.9409243 -0.3219965,-0.9162041z" transform="matrix(1,0,0,-1,1.2853204,2.3851551)" stroke="rgb(100,100,100)" stroke-width="0.0010cm" stroke-linecap="round" stroke-linejoin="round" fill="none" /><path d="M1.4707487,-2.7945304 L1.4753173,-2.7912899 1.4836694,-2.7880348 1.5076912,-2.7827648 1.5242998,-2.7795997 1.546263,-2.7742696 1.5948193,-2.7600921 1.6173428,-2.7530793 1.6375181,-2.7474568 1.6531428,-2.7437956 1.6585587,-2.7428796 1.6620101,-2.7426686 1.6689604,-2.742215 1.679363,-2.7403883 1.7048995,-2.7337815 1.7126954,-2.7315344 1.7228592,-2.7288551 1.7485756,-2.7226024 1.809544,-2.7093283 1.8705713,-2.6961667 1.8963523,-2.6900359 1.9065553,-2.6874289 1.9143914,-2.6852583 1.929302,-2.6814094 1.9427331,-2.679076 1.954585,-2.6782712 1.9647585,-2.6790061 1.9732464,-2.680109 1.9784693,-2.6800799 1.9806727,-2.6788772 1.980101,-2.6764617 1.980586,-2.6722909 1.988669,-2.6708654 1.996016,-2.6687908 1.9995459,-2.6651885 2.003475,-2.6589796 2.0081704,-2.6494914 2.0140019,-2.6360521 2.0213398,-2.6179886 2.0305532,-2.5946285 2.0559343,-2.5288898 2.0823696,-2.458807 2.1084508,-2.3883005 2.1327703,-2.3212909 2.1438287,-2.2903225 2.1539197,-2.2616985 2.1628656,-2.2359089 2.1704914,-2.2134431 2.1766206,-2.1947923 2.1810772,-2.180446 2.1836854,-2.170894 2.1842693,-2.1666272 2.1815066,-2.1661201 2.1747607,-2.1688453 2.1641897,-2.1746996 2.149953,-2.1835809 2.1322076,-2.1953861 2.1111121,-2.2100142 2.0868237,-2.2273625 2.0595018,-2.2473285 2.027303,-2.2708947 1.9999614,-2.2904766 1.9772352,-2.3062264 1.9588862,-2.3182958 1.9446723,-2.3268365 1.9343557,-2.3320013 1.9276941,-2.3339413 1.9244479,-2.332809 1.9196945,-2.3298315 1.9130582,-2.3300061 1.9071564,-2.332728 1.9046071,-2.3373928 1.9074509,-2.3404455 1.9142883,-2.3417148 1.9211249,-2.3430349 1.9239695,-2.346207 1.9231173,-2.3480529 1.9206546,-2.3512242 1.9114593,-2.3610293 1.8975072,-2.3745991 1.8799204,-2.3909107 1.7956974,-2.4630996 1.759908,-2.4942144 1.7451127,-2.5087934 1.7350365,-2.520222 1.717893,-2.5387603 1.7087328,-2.5465313 1.7006833,-2.5519166 1.6869921,-2.5624844 1.6783079,-2.5747995 1.669708,-2.5873179 1.6562188,-2.5983727 1.6434395,-2.607512 1.6389346,-2.6119007 1.6365473,-2.6154233 1.6326346,-2.6203939 1.6270215,-2.6224611 1.6205611,-2.626371 1.6146127,-2.6357724 1.6114279,-2.6413327 1.606362,-2.6479244 1.5930846,-2.6619223 1.5711648,-2.6878146 1.561374,-2.6983238 1.5516855,-2.7066261 1.5421433,-2.7118294 1.5340096,-2.718152 1.5277103,-2.7291458 1.5200027,-2.7436974 1.5083668,-2.7562355 1.4941701,-2.7656005 1.4787769,-2.7706354 1.4691849,-2.7725529 1.4641394,-2.7752089 1.4625151,-2.7798332 1.4631858,-2.7876549 1.4644568,-2.7945696 1.4659069,-2.7978068 1.4678861,-2.7976869 1.4707487,-2.7945304z" transform="matrix(1,0,0,-1,1.2853204,2.3851551)" stroke="rgb(100,100,100)" stroke-width="0.0010cm" stroke-linecap="round" stroke-linejoin="round" fill="none" /><path d="M3.0649308,-0.3595525 L3.0140426,-0.3595648 2.9685737,-0.3596048 2.9282223,-0.3596793 2.8926881,-0.3597962 2.8616686,-0.3599606 2.834862,-0.360179 2.811968,-0.3604587 2.7926842,-0.3608063 2.7767095,-0.3612283 2.7637429,-0.3617313 2.7534827,-0.362321 2.745627,-0.3630047 2.7359246,-0.3646822 2.7322245,-0.3668136 2.7312611,-0.3715204 2.7303786,-0.3821307 2.7295901,-0.3981136 2.7289097,-0.4189383 2.7283519,-0.4440749 2.7279315,-0.4729924 2.7276616,-0.5051594 2.7275585,-0.5400458 2.7274825,-0.706017 3.0651033,-0.7046209 3.1205241,-0.7043829 3.1696203,-0.7041465 3.2128008,-0.7038995 3.2504753,-0.7036313 3.2830529,-0.7033295 3.3109432,-0.7029827 3.3345552,-0.7025803 3.3542987,-0.7021092 3.3705826,-0.701558 3.3838166,-0.7009168 3.3944097,-0.7001717 3.4027708,-0.6993121 3.414437,-0.6972028 3.4220874,-0.6944973 3.4395563,-0.6848145 3.4549831,-0.672476 3.4682449,-0.6575981 3.4792175,-0.6402984 3.4846335,-0.6275894 3.4880105,-0.6110569 3.4891473,-0.5996934 3.4900298,-0.5853765 3.4907422,-0.5674422 3.4913711,-0.5452238 3.4915486,-0.5060566 3.4897509,-0.473322 3.4856787,-0.4462831 3.4790343,-0.424203 3.4695208,-0.4063472 3.4568396,-0.3919779 3.4406924,-0.38036 3.4207828,-0.3707557 3.3930455,-0.3595525 3.0649308,-0.3595525z" transform="matrix(1,0,0,-1,1.2853204,2.3851551)" stroke="rgb(100,100,100)" stroke-width="0.0010cm" stroke-linecap="round" stroke-linejoin="round" fill="none" /><path d="M4.6790477,-1.0347549 L4.7321449,-1.0347729 4.7795931,-1.0348179 4.8217087,-1.0348981 4.8588107,-1.0350191 4.8912149,-1.0351884 4.919241,-1.0354117 4.9432039,-1.0356963 4.9634233,-1.0360488 4.9802159,-1.0364766 4.993899,-1.0369845 5.0047906,-1.0375807 5.0132073,-1.0382718 5.0238888,-1.039964 5.0284828,-1.0421134 5.0322098,-1.0471842 5.0352212,-1.0544714 5.0375571,-1.0643857 5.039255,-1.0773351 5.040355,-1.0937286 5.0408956,-1.1139742 5.0409153,-1.1384818 5.0404548,-1.1676603 5.0398856,-1.1919855 5.0392828,-1.2106404 5.0385115,-1.2245091 5.0374352,-1.2344773 5.0359189,-1.2414301 5.0338259,-1.2462531 5.0273696,-1.2530496 5.0224984,-1.2560087 5.0135484,-1.2582488 5.0063192,-1.2591264 4.9965996,-1.2598584 4.9839005,-1.2604555 4.9677319,-1.2609298 4.9476032,-1.2612905 4.9230236,-1.2615514 4.8935049,-1.2617215 4.8585555,-1.261814 4.8176855,-1.2618385 4.7704059,-1.2618074 4.7162258,-1.2617314 4.6546554,-1.2616226 4.5810926,-1.261405 4.510555,-1.2610452 4.4447227,-1.2605602 4.3852772,-1.2599697 4.3584746,-1.2596409 4.3338983,-1.2592933 4.3117585,-1.2589293 4.2922661,-1.2585506 4.2756297,-1.2581597 4.2620604,-1.2577598 4.2517682,-1.2573525 4.2449635,-1.2569402 4.2112663,-1.2533154 4.1793267,-1.2481653 4.1491398,-1.2414841 4.1206982,-1.2332693 4.0939962,-1.2235162 4.0690298,-1.2122213 4.0457924,-1.1993791 4.0242782,-1.1849861 4.0044816,-1.1690384 3.9863967,-1.151531 3.970018,-1.1324606 3.9553404,-1.1118224 3.9423575,-1.089613 3.9310635,-1.0658276 3.9214526,-1.0404621 3.9135201,-1.0135123 3.9077352,-0.9880879 3.903205,-0.9598246 3.901364,-0.9434467 3.8997806,-0.9249406 3.8984368,-0.9038329 3.8973139,-0.8796509 3.8963921,-0.8519225 3.8956536,-0.8201734 3.8950803,-0.7839318 3.8946525,-0.7427232 3.8943532,-0.6960774 3.8941618,-0.6435184 3.8940604,-0.5845758 3.8940309,-0.5187746 3.894035,-0.4564477 3.8940571,-0.4017409 3.8941095,-0.3541423 3.8942068,-0.313139 3.8943614,-0.278219 3.8945879,-0.2488696 3.8948979,-0.2245779 3.895306,-0.204832 3.8958262,-0.189119 3.8964707,-0.1769261 3.8972542,-0.1677414 3.898189,-0.1610512 3.9005666,-0.1531072 3.9037121,-0.1489933 3.9115727,-0.1436526 3.9179047,-0.1419424 3.9272693,-0.1407499 3.9407405,-0.1399828 3.9593938,-0.1395493 3.9843013,-0.1393563 4.0165378,-0.1393129 4.0444445,-0.1393857 4.0674268,-0.1396237 4.0859696,-0.1400564 4.100558,-0.1407131 4.1116779,-0.141625 4.1198141,-0.14282 4.1290773,-0.1461806 4.1321092,-0.1495748 4.134445,-0.1574926 4.1353921,-0.1644298 4.1362141,-0.1740374 4.1369264,-0.1868273 4.1375439,-0.2033124 4.1380846,-0.2240062 4.138563,-0.2494217 4.1389949,-0.2800707 4.1393981,-0.3164677 4.1397857,-0.3591239 4.1401767,-0.4085546 4.1405856,-0.4652709 4.1410281,-0.5297856 4.1414599,-0.5922344 4.1418664,-0.647472 4.1422614,-0.6959752 4.1426597,-0.7382216 4.1430736,-0.7746882 4.1435177,-0.8058508 4.1440068,-0.8321872 4.1445531,-0.8541741 4.1451714,-0.8722892 4.1458748,-0.8870085 4.146678,-0.8988087 4.1475948,-0.9081677 4.1498227,-0.9214679 4.1526713,-0.9307255 4.1623231,-0.9528138 4.1736351,-0.9717034 4.1869116,-0.9876086 4.2024553,-1.000742 4.2205688,-1.0113196 4.2415571,-1.0195523 4.2657228,-1.0256553 4.2933686,-1.029842 4.2996719,-1.0303597 4.3090611,-1.0308586 4.3213824,-1.0313371 4.3364844,-1.0317918 4.3542135,-1.032222 4.3744183,-1.032626 4.3969458,-1.0330006 4.4216423,-1.0333441 4.476938,-1.0339322 4.5390833,-1.0343738 4.6068597,-1.0346527 4.6790477,-1.0347549z" transform="matrix(1,0,0,-1,1.2853204,2.3851551)" stroke="rgb(100,100,100)" stroke-width="0.0010cm" stroke-linecap="round" stroke-linejoin="round" fill="none" /><path d="M1.3302608,-3.3001233 L1.3339298,-3.3014475 1.3424668,-3.3050535 1.3545999,-3.3103901 1.369055,-3.3169069 1.4111191,-3.3354383 1.4579833,-3.3549491 1.5582105,-3.3936975 1.615761,-3.4148412 1.6147288,-3.5039052 1.6160047,-3.5877386 1.6181443,-3.6276864 1.6211434,-3.6628092 1.6239324,-3.6900284 1.6260196,-3.7125151 1.6267385,-3.7212536 1.6272055,-3.7279332 1.6273969,-3.7322626 1.6272873,-3.7339495 1.6252999,-3.7336358 1.6201105,-3.7322307 1.6120691,-3.7298454 1.6015292,-3.7265894 1.5743619,-3.7179069 1.5414261,-3.7070656 1.493825,-3.6909215 1.4493858,-3.6752368 1.3664509,-3.6438374 1.2855411,-3.610051 1.2436332,-3.5913822 1.1995768,-3.5710609 1.1800983,-3.561877 1.1658411,-3.554301 1.1563791,-3.5470718 1.1512862,-3.5389291 1.1501371,-3.5286124 1.1525041,-3.5148615 1.1579626,-3.496416 1.166084,-3.4720159 1.1711181,-3.4572459 1.1753726,-3.4455679 1.1791504,-3.4364654 1.1827531,-3.4294214 1.1906399,-3.4194458 1.2014481,-3.4115104 1.210641,-3.4052128 1.2217845,-3.3968075 1.24817,-3.3751735 1.3050253,-3.323115 1.3142158,-3.3141875 1.3220371,-3.3068769 1.3276616,-3.301937 1.3302608,-3.3001233z" transform="matrix(1,0,0,-1,1.2853204,2.3851551)" stroke="rgb(100,100,100)" stroke-width="0.0010cm" stroke-linecap="round" stroke-linejoin="round" fill="none" /><path d="M3.1552707,-3.5152307 L3.1671029,-3.4907354 3.2054914,-3.4824863 3.2259358,-3.4777864 3.248941,-3.4719493 3.2741928,-3.4650783 3.3013765,-3.4572791 3.3602888,-3.4393149 3.4231653,-3.4188938 3.5507717,-3.3740338 3.6104797,-3.3512711 3.6641102,-3.329404 3.6769394,-3.3238135 3.6917862,-3.3171008 3.7263782,-3.3008864 3.765574,-3.2819199 3.8070623,-3.2613598 3.8485302,-3.2403637 3.8876671,-3.2200894 3.9221593,-3.2016959 3.9369423,-3.1935662 3.9496963,-3.1863407 4.0233376,-3.1422945 4.0953588,-3.0961533 4.1657434,-3.0479351 4.2344735,-2.9976572 4.301531,-2.9453373 4.3668971,-2.8909929 4.4305539,-2.8346418 4.4924833,-2.7763016 4.5526682,-2.7159891 4.6110889,-2.6537227 4.6677292,-2.5895192 4.7225692,-2.5233969 4.775592,-2.4553727 4.8267803,-2.3854649 4.8761145,-2.3136904 4.9235765,-2.2400666 4.9920334,-2.124465 5.0546498,-2.0070632 5.082954,-1.9492984 5.1088225,-1.8930181 5.1319299,-1.838865 5.1519515,-1.7874845 5.1743441,-1.7310937 5.1848398,-1.7073001 5.1893218,-1.6978929 5.1930685,-1.690676 5.2091789,-1.6616333 5.6310245,-1.6603959 6.05287,-1.6591593 6.05287,-1.7113944 6.05287,-1.7636288 5.9887348,-1.7696769 5.9447847,-1.7739969 5.9030927,-1.7784601 5.8636099,-1.7830753 5.8262837,-1.7878534 5.7910628,-1.7928048 5.7578972,-1.7979386 5.6975266,-1.8087975 5.6447623,-1.8205119 5.5991977,-1.8331611 5.560424,-1.8468294 5.5280329,-1.8615962 5.5028971,-1.8762009 5.480139,-1.8927801 5.4591597,-1.9121023 5.4393573,-1.9349357 5.4201324,-1.9620483 5.4008845,-1.9942087 5.3810126,-2.0321859 5.359918,-2.0767469 5.3375263,-2.1251724 5.3154363,-2.1713676 5.2714707,-2.2581547 5.2266397,-2.3392841 5.1795613,-2.4169322 5.1288547,-2.4932734 5.0731379,-2.5704832 5.0110302,-2.6507375 4.9771481,-2.6926858 4.9411494,-2.7362114 4.8709774,-2.8180986 4.8019701,-2.8943036 4.7332662,-2.9656341 4.6640046,-3.0328981 4.5933222,-3.0969049 4.5203581,-3.1584622 4.44425,-3.2183789 4.3641368,-3.2774629 4.2418752,-3.3606959 4.1165843,-3.4376558 3.9881789,-3.5083823 3.8565715,-3.5729154 3.7216771,-3.6312944 3.5834097,-3.6835594 3.441682,-3.7297501 3.2964071,-3.7699061 3.2518371,-3.7810819 3.2321009,-3.78597 3.2147113,-3.7902335 3.2001515,-3.7937557 3.1889066,-3.7964179 3.1814598,-3.7981015 3.1782971,-3.7986887 3.1749242,-3.7968121 3.1688188,-3.7917024 3.1518822,-3.7749058 3.1352172,-3.7543101 3.1294054,-3.7450889 3.1263907,-3.7381922 3.1249578,-3.7264618 3.1244941,-3.7081615 3.1248875,-3.6852704 3.1260268,-3.6597667 3.1300957,-3.6088336 3.1328029,-3.5873611 3.1358094,-3.5711893 3.1446735,-3.5417728 3.1500747,-3.5272249 3.1552707,-3.5152307z" transform="matrix(1,0,0,-1,1.2853204,2.3851551)" stroke="rgb(100,100,100)" stroke-width="0.0010cm" stroke-linecap="round" stroke-linejoin="round" fill="none" /><path d="M0.6690342,-2.8709312 L0.6483301,-2.8979595 0.6385201,-2.9117632 0.6271153,-2.9293675 0.6051819,-2.9669255 0.5827366,-3.0088633 0.588375,-3.0412429 0.5940139,-3.0736221 0.5608867,-3.1070053 0.5478228,-3.1199571 0.5367414,-3.1305437 0.5288138,-3.1376747 0.5252094,-3.1402588 0.5232649,-3.138987 0.5186815,-3.1353965 0.5117574,-3.1297369 0.5027915,-3.122259 0.4799266,-3.1028492 0.452473,-3.079171 0.3979903,-3.0302871 0.3435849,-2.9783463 0.2893133,-2.9234105 0.2352301,-2.8655419 0.1813935,-2.8048025 0.127858,-2.7412532 0.0746806,-2.6749555 0.0219171,-2.6059724 -0.0179113,-2.5514104 -0.0383201,-2.5224257 -0.0597035,-2.4913579 -0.0825467,-2.4574955 -0.1073332,-2.4201281 -0.1345475,-2.3785445 -0.1646739,-2.332034 -0.1774561,-2.3114036 -0.1921696,-2.2862143 -0.2085136,-2.2570297 -0.2261862,-2.2244137 -0.2448873,-2.1889306 -0.2643159,-2.1511424 -0.3041492,-2.0709081 -0.3237778,-2.0308781 -0.3405921,-1.9976618 -0.3551449,-1.9703431 -0.3679904,-1.9480062 -0.379682,-1.9297365 -0.3907719,-1.9146173 -0.4133624,-1.8901678 -0.4354933,-1.8719235 -0.4610923,-1.8562064 -0.4921028,-1.8424816 -0.5102453,-1.8362004 -0.5304693,-1.8302168 -0.5530181,-1.8244655 -0.578135,-1.8188794 -0.6060621,-1.8133915 -0.6370428,-1.8079346 -0.6713203,-1.8024442 -0.7091376,-1.7968508 -0.7507371,-1.7910897 -0.7963618,-1.7850939 -0.8436803,-1.7789966 -0.8884286,-1.7732069 -0.9082637,-1.7706314 -0.925565,-1.7683782 -0.9397028,-1.7665289 -0.950046,-1.7651655 -0.98998,-1.7598616 -0.98998,-1.709537 -0.98998,-1.6592124 -0.5652306,-1.6592574 -0.1404816,-1.6593032 -0.1117697,-1.7306537 -0.0960052,-1.7696917 -0.0813272,-1.8057321 -0.0676197,-1.8390261 -0.0547664,-1.8698264 -0.0426516,-1.8983841 -0.0311596,-1.924952 -0.0095805,-1.9731256 0.0109003,-2.0163625 0.031209,-2.0566779 0.0750221,-2.1366104 0.1018406,-2.1823934 0.1309589,-2.2301944 0.1925502,-2.3264835 0.2232519,-2.3722869 0.2527105,-2.4147395 0.2800402,-2.4524987 0.3043552,-2.4842224 0.3163951,-2.4990169 0.3306192,-2.5159473 0.3467456,-2.534709 0.3644939,-2.5549975 0.403731,-2.5989354 0.4460838,-2.6453227 0.4893031,-2.6917232 0.5311414,-2.7356986 0.5693513,-2.7748114 0.5863925,-2.7917823 0.6016835,-2.8066239 0.6690342,-2.8709312z" transform="matrix(1,0,0,-1,1.2853204,2.3851551)" stroke="rgb(100,100,100)" stroke-width="0.0010cm" stroke-linecap="round" stroke-linejoin="round" fill="none" /><path d="M2.1298783,-3.1917603 L2.181114,-3.0120742" transform="matrix(1,0,0,-1,1.2853204,2.3851551)" stroke="rgb(100,100,100)" stroke-width="0.0010cm" stroke-linecap="round" stroke-linejoin="round" fill="none" /><path d="M4.1747752,-2.5779279 L4.1746124,-2.5794405" transform="matrix(1,0,0,-1,1.2853204,2.3851551)" stroke="rgb(100,100,100)" stroke-width="0.0010cm" stroke-linecap="round" stroke-linejoin="round" fill="none" /><path d="M2.5132968,-2.8159386 L2.5128126,-2.816" transform="matrix(1,0,0,-1,1.2853204,2.3851551)" stroke="rgb(100,100,100)" stroke-width="0.0010cm" stroke-linecap="round" stroke-linejoin="round" fill="none" /></svg>